<?xml version="1.0" encoding="UTF-8" standalone="no"?>
<!-- Created with Inkscape (http://www.inkscape.org/) -->

<svg
   width="512.0px"
   height="512.0px"
   viewBox="0 0 512.0 512.0"
   version="1.1"
   id="SVGRoot"
   sodipodi:docname="glimmered.svg"
   inkscape:version="1.2.2 (732a01da63, 2022-12-09)"
   inkscape:export-filename="glimmered 7.png"
   inkscape:export-xdpi="96"
   inkscape:export-ydpi="96"
   xmlns:inkscape="http://www.inkscape.org/namespaces/inkscape"
   xmlns:sodipodi="http://sodipodi.sourceforge.net/DTD/sodipodi-0.dtd"
   xmlns="http://www.w3.org/2000/svg"
   xmlns:svg="http://www.w3.org/2000/svg">
  <sodipodi:namedview
     id="namedview27902"
     pagecolor="#2c3b93"
     bordercolor="#666666"
     borderopacity="1.0"
     inkscape:showpageshadow="2"
     inkscape:pageopacity="0"
     inkscape:pagecheckerboard="0"
     inkscape:deskcolor="#1a1a1a"
     inkscape:document-units="px"
     showgrid="true"
     inkscape:zoom="1.4142136"
     inkscape:cx="210.01071"
     inkscape:cy="226.98128"
     inkscape:window-width="1858"
     inkscape:window-height="1057"
     inkscape:window-x="54"
     inkscape:window-y="892"
     inkscape:window-maximized="1"
     inkscape:current-layer="layer1">
    <inkscape:grid
       type="xygrid"
       id="grid28025"
       dotted="true" />
  </sodipodi:namedview>
  <defs
     id="defs27897">
    <inkscape:path-effect
       effect="spiro"
       id="path-effect64030"
       is_visible="true"
       lpeversion="1" />
    <inkscape:path-effect
       effect="spiro"
       id="path-effect64026"
       is_visible="true"
       lpeversion="1" />
    <inkscape:path-effect
       effect="spiro"
       id="path-effect64022"
       is_visible="true"
       lpeversion="1" />
    <inkscape:path-effect
       effect="spiro"
       id="path-effect64018"
       is_visible="true"
       lpeversion="1" />
    <inkscape:path-effect
       effect="spiro"
       id="path-effect64014"
       is_visible="true"
       lpeversion="1" />
    <inkscape:path-effect
       effect="spiro"
       id="path-effect64010"
       is_visible="true"
       lpeversion="1" />
    <inkscape:path-effect
       effect="spiro"
       id="path-effect64006"
       is_visible="true"
       lpeversion="1" />
    <inkscape:path-effect
       effect="spiro"
       id="path-effect64002"
       is_visible="true"
       lpeversion="1" />
    <inkscape:path-effect
       effect="spiro"
       id="path-effect63578"
       is_visible="true"
       lpeversion="1" />
    <inkscape:path-effect
       effect="spiro"
       id="path-effect63574"
       is_visible="true"
       lpeversion="1" />
    <inkscape:path-effect
       effect="spiro"
       id="path-effect63570"
       is_visible="true"
       lpeversion="1" />
    <inkscape:path-effect
       effect="spiro"
       id="path-effect63566"
       is_visible="true"
       lpeversion="1" />
    <inkscape:path-effect
       effect="spiro"
       id="path-effect63562"
       is_visible="true"
       lpeversion="1" />
    <inkscape:path-effect
       effect="spiro"
       id="path-effect63558"
       is_visible="true"
       lpeversion="1" />
    <inkscape:path-effect
       effect="spiro"
       id="path-effect63554"
       is_visible="true"
       lpeversion="1" />
    <inkscape:path-effect
       effect="spiro"
       id="path-effect63550"
       is_visible="true"
       lpeversion="1" />
    <inkscape:path-effect
       effect="spiro"
       id="path-effect61738"
       is_visible="true"
       lpeversion="1" />
    <inkscape:path-effect
       effect="spiro"
       id="path-effect61728"
       is_visible="true"
       lpeversion="1" />
    <inkscape:path-effect
       effect="spiro"
       id="path-effect61717"
       is_visible="true"
       lpeversion="1" />
    <inkscape:path-effect
       effect="spiro"
       id="path-effect61697"
       is_visible="true"
       lpeversion="1" />
    <inkscape:path-effect
       effect="spiro"
       id="path-effect60943"
       is_visible="true"
       lpeversion="1" />
    <inkscape:path-effect
       effect="spiro"
       id="path-effect60935"
       is_visible="true"
       lpeversion="1" />
    <inkscape:path-effect
       effect="spiro"
       id="path-effect43023"
       is_visible="true"
       lpeversion="1" />
    <inkscape:path-effect
       effect="spiro"
       id="path-effect43017"
       is_visible="true"
       lpeversion="1" />
    <inkscape:path-effect
       effect="spiro"
       id="path-effect39139"
       is_visible="true"
       lpeversion="1" />
    <inkscape:path-effect
       effect="spiro"
       id="path-effect39012"
       is_visible="true"
       lpeversion="1" />
    <inkscape:path-effect
       effect="spiro"
       id="path-effect38998"
       is_visible="true"
       lpeversion="1" />
    <inkscape:path-effect
       effect="spiro"
       id="path-effect38990"
       is_visible="true"
       lpeversion="1" />
    <inkscape:path-effect
       effect="spiro"
       id="path-effect38986"
       is_visible="true"
       lpeversion="1" />
    <inkscape:path-effect
       effect="spiro"
       id="path-effect38236"
       is_visible="true"
       lpeversion="1" />
    <inkscape:path-effect
       effect="spiro"
       id="path-effect38232"
       is_visible="true"
       lpeversion="1" />
    <inkscape:path-effect
       effect="spiro"
       id="path-effect37146"
       is_visible="true"
       lpeversion="1" />
    <inkscape:path-effect
       effect="spiro"
       id="path-effect36209"
       is_visible="true"
       lpeversion="1" />
  </defs>
  <g
     inkscape:label="Camada 1"
     inkscape:groupmode="layer"
     id="layer1">
    <circle
       style="fill:#239e2d;stroke-width:2.02693;stroke-linecap:round;paint-order:fill markers stroke"
       id="path28084"
       cx="-342.01254"
       cy="122.80605"
       r="80" />
    <circle
       style="fill:#239e2d;stroke-width:2.02693;stroke-linecap:round;paint-order:fill markers stroke"
       id="circle28086"
       cx="-342.01254"
       cy="282.80606"
       r="80" />
    <circle
       style="fill:#d0f4d3;fill-opacity:1;stroke-width:1.01347;stroke-linecap:round;paint-order:fill markers stroke"
       id="circle28088"
       cx="-342.01254"
       cy="322.80606"
       r="40" />
    <g
       id="g35079"
       transform="translate(-473.71718,-17.073298)">
      <path
         sodipodi:type="star"
         style="fill:#ffffff;fill-opacity:1;stroke:#b9b9b9;stroke-width:2;stroke-linecap:round;stroke-opacity:1;paint-order:fill markers stroke"
         id="path32304"
         inkscape:flatsided="false"
         sodipodi:sides="2"
         sodipodi:cx="326.11075"
         sodipodi:cy="323.03424"
         sodipodi:r1="37.247665"
         sodipodi:r2="12.664206"
         sodipodi:arg1="1.5707963"
         sodipodi:arg2="3.1415927"
         inkscape:rounded="0.1"
         inkscape:randomized="0"
         d="m 326.11075,360.28191 c -3.93417,0 -12.66421,-33.3135 -12.66421,-37.24767 0,-3.93417 8.73004,-37.24766 12.66421,-37.24766 3.93417,0 12.6642,33.31349 12.6642,37.24766 0,3.93417 -8.73003,37.24767 -12.6642,37.24767 z"
         transform="rotate(-30.793906,350.02094,326.61414)" />
      <path
         sodipodi:type="star"
         style="fill:#ffffff;fill-opacity:1;stroke:#b9b9b9;stroke-width:2;stroke-linecap:round;stroke-opacity:1;paint-order:fill markers stroke"
         id="path32306"
         inkscape:flatsided="false"
         sodipodi:sides="2"
         sodipodi:cx="326.11075"
         sodipodi:cy="323.03424"
         sodipodi:r1="37.247665"
         sodipodi:r2="12.664206"
         sodipodi:arg1="1.5707963"
         sodipodi:arg2="3.1415927"
         inkscape:rounded="0.1"
         inkscape:randomized="0"
         d="m 326.11075,360.28191 c -3.93417,0 -12.66421,-33.3135 -12.66421,-37.24767 0,-3.93417 8.73004,-37.24766 12.66421,-37.24766 3.93417,0 12.6642,33.31349 12.6642,37.24766 0,3.93417 -8.73003,37.24767 -12.6642,37.24767 z"
         transform="rotate(-54.34641,369.6213,278.84059)" />
      <path
         id="path32310"
         style="fill:#ffffff;stroke:#b9b9b9;stroke-width:1.3094;stroke-linecap:round;paint-order:fill markers stroke"
         d="m 414.1415,321.15551 c -3.6429,0.39128 -16.04361,-46.57856 -16.43489,-50.22144 -0.39128,-3.64288 5.38285,-18.36691 9.02574,-18.7582 3.64288,-0.39128 16.14001,17.91826 16.5313,21.56114 0.39129,3.64289 -5.47928,47.02721 -9.12215,47.4185 z"
         sodipodi:nodetypes="sssss" />
      <path
         id="circle31412"
         style="fill:#ffffff;fill-opacity:1;stroke:#b9b9b9;stroke-width:2.02693;stroke-linecap:round;stroke-opacity:1;paint-order:fill markers stroke"
         d="m 413.49911,297.07805 c -0.31077,29.26558 -32.11961,47.56023 -56.38109,46.74707 -24.60779,-0.82478 -55.13799,-17.17072 -55.75954,-42.70699 -0.91278,-37.50143 8.15362,-53.49934 14.33461,-63.20396 3.40761,-5.35019 37.47396,3.55973 44.14421,3.55973 7.79605,0 36.53614,-11.48562 41.03031,-5.51986 4.59123,6.09459 13.01787,24.73933 12.6315,61.12401 z"
         sodipodi:nodetypes="sssssss" />
      <path
         id="path32247"
         style="fill:#ffffff;stroke:#b9b9b9;stroke-width:1.93079;stroke-linecap:round;paint-order:fill markers stroke"
         d="m 325.61133,68.158203 c -15.73119,0.586218 -16.14679,39.108587 -15.42383,52.183597 -19.75276,13.87259 -25.0079,37.02528 -26.8457,61.5625 -2.71442,36.24101 9.02898,64.30186 81.02148,59.85351 71.9925,-4.44834 60.22253,-35.75398 57.73633,-59.79883 -1.46509,-14.1694 -7.87391,-39.0695 -23.80469,-56.16992 0.3945,-0.72008 0.62831,-1.31196 0.66406,-1.73047 0.3692,-4.32206 -3.13839,-55.545831 -21.32031,-55.382809 -11.23837,0.100764 -18.08194,28.132548 -21.80134,45.445129 -1.14152,0.002 -1.24606,-0.0912 -2.42446,-0.031 -5.58303,-17.376593 -16.19596,-46.364127 -27.80154,-45.931647 z"
         sodipodi:nodetypes="scssscssccss" />
      <path
         id="path32308"
         style="fill:#ffffff;stroke:#b9b9b9;stroke-width:1.3094;stroke-linecap:round;paint-order:fill markers stroke"
         d="m 269.97434,303.15238 c -2.60806,-2.57329 25.91638,-41.89631 28.48966,-44.50436 2.57328,-2.60805 17.62845,-7.4536 20.23651,-4.88032 2.60805,2.57328 -3.66228,23.83593 -6.23555,26.44399 -2.57328,2.60806 -39.88257,25.51396 -42.49062,22.94069 z"
         sodipodi:nodetypes="sssss" />
      <circle
         style="fill:#131313;fill-opacity:1;stroke:#adadad;stroke-width:3.31092;stroke-linecap:round;stroke-opacity:1;paint-order:fill markers stroke"
         id="path32364"
         cx="339.78568"
         cy="198.85304"
         r="11.823153" />
      <circle
         style="fill:#131313;fill-opacity:1;stroke:#adadad;stroke-width:3.31092;stroke-linecap:round;stroke-opacity:1;paint-order:fill markers stroke"
         id="circle33614"
         cx="395.98181"
         cy="197.98518"
         r="11.823153" />
    </g>
    <g
       id="g39135"
       transform="matrix(-1,0,0,1,706.86083,-284.2911)">
      <circle
         style="fill:#0a2b19;fill-opacity:1;stroke:none;stroke-width:24.0596;stroke-linecap:round;stroke-dasharray:none;stroke-opacity:1;paint-order:fill markers stroke"
         id="circle39131"
         cx="266.26508"
         cy="209.3257"
         r="10.281062" />
      <path
         style="font-variation-settings:normal;opacity:1;vector-effect:none;fill:none;fill-opacity:1;stroke:#0a2b19;stroke-width:4;stroke-linecap:round;stroke-linejoin:miter;stroke-miterlimit:4;stroke-dasharray:none;stroke-dashoffset:0;stroke-opacity:1;-inkscape-stroke:none;stop-color:#000000;stop-opacity:1"
         d="m 262.24645,208.8323 c -0.5298,2.05984 -1.82375,3.91378 -3.5745,5.12146 -1.75076,1.20768 -3.9434,1.75881 -6.05711,1.52247 -2.27139,-0.25397 -4.42782,-1.41981 -5.88423,-3.18122"
         id="path39133"
         inkscape:path-effect="#path-effect39139"
         inkscape:original-d="m 262.24645,208.8323 c -3.20912,2.21471 -6.41966,4.42935 -9.63161,6.64393 -3.21196,2.21458 -3.92141,-2.12074 -5.88423,-3.18122" />
    </g>
    <g
       id="g39694"
       transform="translate(136.68524,-341.93284)">
      <g
         id="g39680"
         transform="rotate(109.11023,262.07736,160.17254)">
        <circle
           style="fill:#ffffff;fill-opacity:1;stroke:none;stroke-width:4;stroke-linecap:round;stroke-dasharray:none;stroke-opacity:1;paint-order:fill markers stroke"
           id="path39206"
           cx="317.92294"
           cy="169.37244"
           r="7.1478276" />
        <circle
           style="fill:#b30d0d;fill-opacity:1;stroke:none;stroke-width:2.08696;stroke-linecap:round;stroke-dasharray:none;stroke-opacity:1;paint-order:fill markers stroke"
           id="circle39676"
           cx="318.1366"
           cy="166.49777"
           r="3.7293015" />
      </g>
      <g
         id="g39686"
         transform="rotate(-120.62542,323.3347,192.94997)">
        <circle
           style="fill:#ffffff;fill-opacity:1;stroke:none;stroke-width:4;stroke-linecap:round;stroke-dasharray:none;stroke-opacity:1;paint-order:fill markers stroke"
           id="circle39682"
           cx="317.92294"
           cy="169.37244"
           r="7.1478276" />
        <circle
           style="fill:#b30d0d;fill-opacity:1;stroke:none;stroke-width:2.08696;stroke-linecap:round;stroke-dasharray:none;stroke-opacity:1;paint-order:fill markers stroke"
           id="circle39684"
           cx="318.1366"
           cy="166.49777"
           r="3.7293015" />
      </g>
    </g>
    <g
       id="g51180"
       transform="matrix(1.4794499,0,0,1.4794499,-35.263052,-311.98361)">
      <path
         sodipodi:type="star"
         style="fill:#82f46b;fill-opacity:0.454546;stroke:none;stroke-width:2;stroke-linecap:round;stroke-dasharray:none;stroke-opacity:1;paint-order:fill markers stroke"
         id="path50066"
         inkscape:flatsided="false"
         sodipodi:sides="6"
         sodipodi:cx="143.49751"
         sodipodi:cy="142.61852"
         sodipodi:r1="12.635693"
         sodipodi:r2="6.3178468"
         sodipodi:arg1="-1.5707963"
         sodipodi:arg2="-1.0471976"
         inkscape:rounded="0.18"
         inkscape:randomized="0"
         d="m 143.49751,129.98282 c 1.40937,0 1.93838,6.4596 3.15893,7.16428 1.22054,0.70468 7.07922,-2.06697 7.7839,-0.84643 0.70469,1.22054 -4.62498,4.90848 -4.62498,6.31784 0,1.40937 5.32966,5.09731 4.62498,6.31785 -0.70468,1.22055 -6.56336,-1.55111 -7.7839,-0.84643 -1.22055,0.70468 -1.74956,7.16428 -3.15893,7.16428 -1.40936,0 -1.93838,-6.4596 -3.15892,-7.16428 -1.22054,-0.70468 -7.07923,2.06697 -7.78391,0.84643 -0.70468,-1.22054 4.62499,-4.90848 4.62499,-6.31784 0,-1.40937 -5.32967,-5.09731 -4.62499,-6.31785 0.70468,-1.22055 6.56337,1.55111 7.78391,0.84643 1.22054,-0.70468 1.74956,-7.16428 3.15892,-7.16428 z"
         transform="translate(9.6690522,32.523175)" />
      <path
         sodipodi:type="star"
         style="fill:#82f46b;fill-opacity:0.454546;stroke:none;stroke-width:2;stroke-linecap:round;stroke-dasharray:none;stroke-opacity:1;paint-order:fill markers stroke"
         id="path50120"
         inkscape:flatsided="false"
         sodipodi:sides="3"
         sodipodi:cx="143.05801"
         sodipodi:cy="143.93703"
         sodipodi:r1="12.433432"
         sodipodi:r2="2.1136835"
         sodipodi:arg1="-1.0471976"
         sodipodi:arg2="-4.8803402e-08"
         inkscape:rounded="0.64"
         inkscape:randomized="0"
         d="m 149.27473,133.16936 c 6.38665,3.68733 -4.10303,3.393 -4.10303,10.76767 0,7.37466 10.48968,7.08033 4.10303,10.76766 -6.38665,3.68734 -0.88691,-5.24983 -7.27356,-8.93716 -6.38664,-3.68733 -11.37659,5.54416 -11.37659,-1.8305 0,-7.37467 4.98995,1.85683 11.37659,-1.83051 6.38665,-3.68733 0.88691,-12.62449 7.27356,-8.93716 z"
         transform="translate(9.998679,30.984917)" />
      <path
         sodipodi:type="star"
         style="fill:#82f46b;fill-opacity:0.454546;stroke:none;stroke-width:2;stroke-linecap:round;stroke-dasharray:none;stroke-opacity:1;paint-order:fill markers stroke"
         id="path50122"
         inkscape:flatsided="false"
         sodipodi:sides="3"
         sodipodi:cx="143.05801"
         sodipodi:cy="143.93703"
         sodipodi:r1="12.433432"
         sodipodi:r2="2.7353549"
         sodipodi:arg1="-1.0471976"
         sodipodi:arg2="-4.8803402e-08"
         inkscape:rounded="0.81"
         inkscape:randomized="0"
         d="m 149.27473,133.16936 c 7.93828,4.58317 -3.48136,1.60132 -3.48136,10.76767 0,9.16634 11.41965,6.18449 3.48136,10.76766 -7.93828,4.58318 0.35389,-3.81561 -7.58439,-8.39878 -7.93829,-4.58317 -11.06576,6.79746 -11.06576,-2.36888 0,-9.16634 3.12747,2.21428 11.06576,-2.36889 7.93828,-4.58317 -0.3539,-12.98195 7.58439,-8.39878 z"
         transform="rotate(-60.420524,174.77241,151.04053)" />
      <circle
         style="fill:#ffffff;fill-opacity:1;stroke:none;stroke-width:2.06428;stroke-linecap:round;stroke-dasharray:none;stroke-opacity:1;paint-order:fill markers stroke"
         id="path50176"
         cx="152.83694"
         cy="175.00403"
         r="3.7424352" />
    </g>
    <path
       style="font-variation-settings:normal;vector-effect:none;fill:none;fill-opacity:1;stroke:#1a7854;stroke-width:27.4853;stroke-linecap:round;stroke-linejoin:miter;stroke-miterlimit:4;stroke-dasharray:none;stroke-dashoffset:0;stroke-opacity:1;-inkscape-stroke:none;stop-color:#000000"
       d="m 231.53924,391.19269 c -0.62671,7.82672 -3.84744,15.42385 -9.03683,21.31626 -5.18939,5.89242 -12.31861,10.04738 -20.00339,11.65812 -7.68478,1.61075 -15.88242,0.66833 -23.0012,-2.64427 -7.11878,-3.31259 -13.11915,-8.97696 -16.83602,-15.89326 -3.14217,-5.8469 -4.64498,-12.46206 -5.21066,-19.07565 -0.56567,-6.61358 -0.22731,-13.26747 0.12013,-19.8961 0.34744,-6.62864 0.70339,-13.28042 0.17261,-19.8969 -0.53078,-6.61648 -1.98017,-13.23996 -5.06048,-19.11969 -3.44944,-6.58433 -8.93105,-12.08599 -15.50275,-15.55944 -6.5717,-3.47345 -14.20521,-4.90375 -21.58862,-4.04509 -7.38341,0.85867 -14.48495,4.0026 -20.084145,8.89148 -5.599191,4.88888 -9.671935,11.50167 -11.518284,18.70188"
       id="path37144"
       inkscape:path-effect="#path-effect37146"
       inkscape:original-d="m 231.53924,391.19269 c -22.95838,4.81459 -45.91753,9.62686 -68.87744,14.43685 -22.95996,4.80998 -6.65148,-51.98992 -9.9784,-77.98834 -3.3269,-25.99842 -45.79508,5.32819 -68.693799,7.98883" />
    <path
       id="path37202"
       style="fill:#a7eabe;stroke:#28b669;stroke-width:4.34614;stroke-linecap:round;stroke-opacity:1;paint-order:fill markers stroke"
       d="m 292.41502,379.03654 c 4.2088,11.32765 9.5471,20.31038 14.65249,28.34382 -0.39733,3.56434 -6.10985,19.05527 -2.19286,20.06881 3.91698,1.01352 9.86435,-8.16017 13.22226,-8.88313 1.84569,2.88021 4.76507,10.97405 6.21722,10.63423 2.83744,-0.66396 2.41346,-3.49511 3.24442,-10.84936 3.15732,3.45907 8.26544,6.58794 8.93919,6.27107 2.20124,-1.03519 -0.23229,-6.44606 -1.39902,-10.43326 8.03655,3.4107 8.76,5.94437 11.92369,3.88385 3.16367,-2.06048 -9.04267,-14.28106 -17.42868,-19.8231 -1.96796,-8.19093 -2.12332,-22.22464 -6.28395,-33.42266 -9.97142,-26.83726 -24.30261,-44.74261 -39.38568,-39.13847 -15.08304,5.60414 -1.48051,26.51093 8.49092,53.3482 z"
       sodipodi:nodetypes="sczcscsczcsss" />
    <g
       id="g59389"
       transform="matrix(1.7178282,0,0,1.7178282,-206.37514,-147.93969)">
      <path
         id="path35084"
         style="fill:#28b669;fill-opacity:1;stroke:none;stroke-width:2.73247;stroke-linecap:round;paint-order:fill markers stroke"
         d="m 304.87274,309.23849 c 3.17107,21.44121 -14.44182,71.34751 -21.14013,72.16606 -6.45485,0.7888 -9.8134,-38.61666 -14.83215,-38.19206 -5.01874,0.42458 -12.39521,35.95167 -19.59686,36.28741 -7.39142,0.34456 -21.77937,-47.72466 -18.74088,-69.06673 2.75986,-19.38496 15.43394,-45.99082 23.98439,-62.3258 0.62305,-1.19028 8.75438,-1.74717 14.22665,-1.57363 4.72902,0.14997 13.71615,0.47719 14.18907,1.39896 7.33903,14.3043 18.59578,38.89713 21.90991,61.30579 z"
         sodipodi:nodetypes="sszssssss" />
      <path
         sodipodi:type="star"
         style="fill:#a7eabe;fill-opacity:1;stroke:none;stroke-width:2;stroke-linecap:round;stroke-dasharray:none;stroke-opacity:1;paint-order:fill markers stroke"
         id="path57092"
         inkscape:flatsided="false"
         sodipodi:sides="5"
         sodipodi:cx="272.54977"
         sodipodi:cy="296.16867"
         sodipodi:r1="15.541863"
         sodipodi:r2="7.7709312"
         sodipodi:arg1="-1.5707963"
         sodipodi:arg2="-0.9424778"
         inkscape:rounded="0.1"
         inkscape:randomized="0"
         d="m 272.54977,280.62681 c 1.03209,0 3.73267,8.6484 4.56764,9.25505 0.83497,0.60664 9.89462,0.50254 10.21355,1.48411 0.31894,0.98157 -7.07166,6.22248 -7.39059,7.20405 -0.31893,0.98157 2.57965,9.56564 1.74468,10.17228 -0.83497,0.60664 -8.10319,-4.8027 -9.13528,-4.8027 -1.03208,0 -8.3003,5.40934 -9.13527,4.8027 -0.83498,-0.60664 2.06361,-9.19071 1.74468,-10.17228 -0.31893,-0.98157 -7.70953,-6.22248 -7.3906,-7.20405 0.31893,-0.98157 9.37858,-0.87747 10.21356,-1.48411 0.83497,-0.60665 3.53555,-9.25505 4.56763,-9.25505 z"
         inkscape:transform-center-y="-1.416653"
         transform="translate(0.32962678,-4.0653969)" />
    </g>
    <path
       id="path35415"
       style="fill:#a7eabe;stroke:#28b669;stroke-width:4.34614;stroke-linecap:round;stroke-opacity:1;paint-order:fill markers stroke"
       d="m 214.85186,371.56251 c -4.2088,11.32765 -9.5471,20.31038 -14.65249,28.34382 0.39734,3.56434 6.10985,19.05527 2.19286,20.06881 -3.91697,1.01352 -9.86435,-8.16017 -13.22226,-8.88313 -1.84568,2.88021 -4.76506,10.97405 -6.21721,10.63423 -2.83744,-0.66396 -2.41347,-3.49511 -3.24443,-10.84936 -3.15732,3.45907 -8.26544,6.58794 -8.93918,6.27107 -2.20125,-1.03519 0.23228,-6.44606 1.39901,-10.43326 -8.03655,3.4107 -8.75999,5.94437 -11.92368,3.88385 -3.16368,-2.06048 9.04266,-14.28106 17.42867,-19.8231 1.96796,-8.19093 2.12332,-22.22464 6.28395,-33.42266 9.97143,-26.83726 24.30262,-44.74261 39.38568,-39.13847 15.08305,5.60414 1.48051,26.51093 -8.49092,53.3482 z"
       sodipodi:nodetypes="sczcscsczcsss" />
    <path
       style="font-variation-settings:normal;vector-effect:none;fill:none;fill-opacity:1;stroke:#1a7854;stroke-width:27.4853;stroke-linecap:round;stroke-linejoin:miter;stroke-miterlimit:4;stroke-dasharray:none;stroke-dashoffset:0;stroke-opacity:1;-inkscape-stroke:none;stop-color:#000000"
       d="m 861.79116,184.83802 c -0.62671,7.82672 -3.84744,15.42385 -9.03683,21.31626 -5.18939,5.89242 -12.31861,10.04738 -20.00339,11.65812 -7.68478,1.61075 -15.88242,0.66833 -23.0012,-2.64427 -7.11878,-3.31259 -13.11915,-8.97696 -16.83602,-15.89326 -3.14217,-5.8469 -4.64498,-12.46206 -5.21066,-19.07565 -0.56567,-6.61358 -0.22731,-13.26747 0.12013,-19.8961 0.34744,-6.62864 0.70339,-13.28042 0.17261,-19.8969 -0.53078,-6.61648 -1.98017,-13.23996 -5.06048,-19.11969 -3.44944,-6.58433 -8.93105,-12.08599 -15.50275,-15.55944 -6.5717,-3.47345 -14.20521,-4.90375 -21.58862,-4.04509 -7.38341,0.85866 -14.48495,4.0026 -20.08415,8.89148 -5.59919,4.88888 -9.67193,11.50167 -11.51828,18.70188"
       id="path63490"
       inkscape:path-effect="#path-effect63550"
       inkscape:original-d="m 861.79116,184.83802 c -22.95838,4.81459 -45.91753,9.62686 -68.87744,14.43685 -22.95996,4.80998 -6.65148,-51.98992 -9.9784,-77.98834 -3.3269,-25.998421 -45.79508,5.32819 -68.6938,7.98883" />
    <path
       id="path63492"
       style="fill:#a7eabe;stroke:#28b669;stroke-width:4.34614;stroke-linecap:round;stroke-opacity:1;paint-order:fill markers stroke"
       d="m 922.66694,172.68187 c 4.2088,11.32765 9.5471,20.31038 14.65249,28.34382 -0.39733,3.56434 -6.10985,19.05527 -2.19286,20.06881 3.91698,1.01352 9.86435,-8.16017 13.22226,-8.88313 1.84569,2.88021 4.76507,10.97405 6.21722,10.63423 2.83744,-0.66396 2.41346,-3.49511 3.24442,-10.84936 3.15732,3.45907 8.26544,6.58794 8.93919,6.27107 2.20124,-1.03519 -0.23229,-6.44606 -1.39902,-10.43326 8.03655,3.4107 8.76,5.94437 11.92369,3.88385 3.16367,-2.06048 -9.04267,-14.28106 -17.42868,-19.8231 -1.96796,-8.19093 -2.12332,-22.22464 -6.28395,-33.42266 -9.97142,-26.83726 -24.30261,-44.74261 -39.38568,-39.13847 -15.08304,5.60414 -1.48051,26.51093 8.49092,53.3482 z"
       sodipodi:nodetypes="sczcscsczcsss" />
    <g
       id="g63498"
       transform="matrix(1.7178282,0,0,1.7178282,423.87678,-354.29436)">
      <path
         id="path63494"
         style="fill:#28b669;fill-opacity:1;stroke:none;stroke-width:2.73247;stroke-linecap:round;paint-order:fill markers stroke"
         d="m 304.87274,309.23849 c 3.17107,21.44121 -14.44182,71.34751 -21.14013,72.16606 -6.45485,0.7888 -9.8134,-38.61666 -14.83215,-38.19206 -5.01874,0.42458 -12.39521,35.95167 -19.59686,36.28741 -7.39142,0.34456 -21.77937,-47.72466 -18.74088,-69.06673 2.75986,-19.38496 15.43394,-45.99082 23.98439,-62.3258 0.62305,-1.19028 8.75438,-1.74717 14.22665,-1.57363 4.72902,0.14997 13.71615,0.47719 14.18907,1.39896 7.33903,14.3043 18.59578,38.89713 21.90991,61.30579 z"
         sodipodi:nodetypes="sszssssss" />
      <path
         sodipodi:type="star"
         style="fill:#a7eabe;fill-opacity:1;stroke:none;stroke-width:2;stroke-linecap:round;stroke-dasharray:none;stroke-opacity:1;paint-order:fill markers stroke"
         id="path63496"
         inkscape:flatsided="false"
         sodipodi:sides="5"
         sodipodi:cx="272.54977"
         sodipodi:cy="296.16867"
         sodipodi:r1="15.541863"
         sodipodi:r2="7.7709312"
         sodipodi:arg1="-1.5707963"
         sodipodi:arg2="-0.9424778"
         inkscape:rounded="0.1"
         inkscape:randomized="0"
         d="m 272.54977,280.62681 c 1.03209,0 3.73267,8.6484 4.56764,9.25505 0.83497,0.60664 9.89462,0.50254 10.21355,1.48411 0.31894,0.98157 -7.07166,6.22248 -7.39059,7.20405 -0.31893,0.98157 2.57965,9.56564 1.74468,10.17228 -0.83497,0.60664 -8.10319,-4.8027 -9.13528,-4.8027 -1.03208,0 -8.3003,5.40934 -9.13527,4.8027 -0.83498,-0.60664 2.06361,-9.19071 1.74468,-10.17228 -0.31893,-0.98157 -7.70953,-6.22248 -7.3906,-7.20405 0.31893,-0.98157 9.37858,-0.87747 10.21356,-1.48411 0.83497,-0.60665 3.53555,-9.25505 4.56763,-9.25505 z"
         inkscape:transform-center-y="-1.416653"
         transform="translate(0.32962678,-4.0653969)" />
    </g>
    <path
       id="path63500"
       style="fill:#a7eabe;stroke:#28b669;stroke-width:4.34614;stroke-linecap:round;stroke-opacity:1;paint-order:fill markers stroke"
       d="m 845.10378,165.20784 c -4.2088,11.32765 -9.5471,20.31038 -14.65249,28.34382 0.39734,3.56434 6.10985,19.05527 2.19286,20.06881 -3.91697,1.01352 -9.86435,-8.16017 -13.22226,-8.88313 -1.84568,2.88021 -4.76506,10.97405 -6.21721,10.63423 -2.83744,-0.66396 -2.41347,-3.49511 -3.24443,-10.84936 -3.15732,3.45907 -8.26544,6.58794 -8.93918,6.27107 -2.20125,-1.03519 0.23228,-6.44606 1.39901,-10.43326 -8.03655,3.4107 -8.75999,5.94437 -11.92368,3.88385 -3.16368,-2.06048 9.04266,-14.28106 17.42867,-19.8231 1.96796,-8.19093 2.12332,-22.22464 6.28395,-33.42266 9.97143,-26.83726 24.30262,-44.74261 39.38568,-39.13847 15.08305,5.60414 1.48051,26.51093 -8.49092,53.3482 z"
       sodipodi:nodetypes="sczcscsczcsss" />
    <g
       id="g63546"
       transform="translate(630.25192,-206.35467)">
      <path
         style="font-variation-settings:normal;fill:none;fill-opacity:1;stroke:#28b669;stroke-width:6.87131;stroke-linecap:round;stroke-linejoin:miter;stroke-miterlimit:4;stroke-dasharray:none;stroke-dashoffset:0;stroke-opacity:1;stop-color:#000000"
         d="M 256.27025,75.791097 V 38.154082"
         id="path63502"
         inkscape:path-effect="#path-effect63554"
         inkscape:original-d="m 256.27025,75.791097 c 0.002,-12.499468 0.002,-25.08962 0,-37.637015" />
      <circle
         style="fill:#a7eabe;fill-opacity:1;stroke:#28b669;stroke-width:6.60313;stroke-linecap:round;stroke-dasharray:none;stroke-opacity:1;paint-order:fill markers stroke"
         id="circle63504"
         cx="256.3027"
         cy="27.316938"
         r="17.827501" />
      <g
         id="g63528"
         transform="matrix(1.7178282,0,0,1.7178282,-206.37514,-147.93969)">
        <g
           id="g63510">
          <path
             style="font-variation-settings:normal;opacity:1;vector-effect:none;fill:none;fill-opacity:1;stroke:#28b669;stroke-width:5.85265;stroke-linecap:round;stroke-linejoin:miter;stroke-miterlimit:4;stroke-dasharray:none;stroke-dashoffset:0;stroke-opacity:1;-inkscape-stroke:none;stop-color:#000000;stop-opacity:1"
             d="m 224.12421,198.53168 c -16.34525,-1.26902 -32.83859,-0.6201 -49.03361,1.92919 -5.25945,0.8279 -10.51433,1.85798 -15.83763,1.95628 -5.3233,0.0983 -10.80158,-0.79799 -15.35095,-3.56394 -4.62862,-2.81413 -8.06377,-7.54442 -9.25123,-12.82963 -1.18746,-5.28521 -0.0952,-11.05354 2.98981,-15.50623 3.08497,-4.45269 8.12699,-7.50958 13.50842,-8.12904 5.38143,-0.61946 11.0088,1.22658 14.93869,4.95479 1.77763,1.6864 3.21784,3.74337 4.09551,6.03107 0.87768,2.2877 1.18209,4.80701 0.77023,7.22244 -0.41187,2.41542 -1.55281,4.71707 -3.30016,6.43482 -1.74735,1.71775 -4.10375,2.82789 -6.54933,2.97966 -1.82883,0.1135 -3.68761,-0.30628 -5.29016,-1.1947 -1.60256,-0.88842 -2.94342,-2.24245 -3.81613,-3.85361 -0.87272,-1.61117 -1.2743,-3.47396 -1.14294,-5.30159 0.13137,-1.82763 0.79523,-3.61384 1.8894,-5.08363"
             id="path63506"
             inkscape:original-d="m 224.12421,198.53168 c -16.28949,0.64453 -32.68761,1.28759 -49.03361,1.92919 -16.34599,0.6416 -20.79093,-1.0703 -31.18858,-1.60766 -10.39766,-0.53735 14.79192,-21.00527 22.18569,-31.51011 7.39378,-10.50484 -3.32103,15.11345 -4.98375,22.66799 -1.66271,7.55453 -5.57175,-10.28755 -8.35983,-15.43353"
             inkscape:path-effect="#path-effect63558" />
          <path
             style="font-variation-settings:normal;opacity:1;vector-effect:none;fill:none;fill-opacity:1;stroke:#28b669;stroke-width:5.85265;stroke-linecap:round;stroke-linejoin:miter;stroke-miterlimit:4;stroke-dasharray:none;stroke-dashoffset:0;stroke-opacity:1;-inkscape-stroke:none;stop-color:#000000;stop-opacity:1"
             d="m 313.49329,198.53168 c 16.34525,-1.26902 32.83859,-0.6201 49.03361,1.92919 5.25945,0.8279 10.51433,1.85798 15.83763,1.95628 5.3233,0.0983 10.80158,-0.79799 15.35095,-3.56394 4.62862,-2.81413 8.06377,-7.54442 9.25123,-12.82963 1.18746,-5.28521 0.0952,-11.05354 -2.98981,-15.50623 -3.08497,-4.45269 -8.12699,-7.50958 -13.50842,-8.12904 -5.38143,-0.61946 -11.0088,1.22658 -14.93869,4.95479 -1.77763,1.6864 -3.21784,3.74337 -4.09551,6.03107 -0.87768,2.2877 -1.18209,4.80701 -0.77023,7.22244 0.41187,2.41542 1.55281,4.71707 3.30016,6.43482 1.74735,1.71775 4.10375,2.82789 6.54933,2.97966 1.82883,0.1135 3.68761,-0.30628 5.29016,-1.1947 1.60256,-0.88842 2.94342,-2.24245 3.81613,-3.85361 0.87272,-1.61117 1.2743,-3.47396 1.14294,-5.30159 -0.13137,-1.82763 -0.79523,-3.61384 -1.8894,-5.08363"
             id="path63508"
             inkscape:original-d="m 313.49329,198.53168 c 16.28949,0.64453 32.68761,1.28759 49.03361,1.92919 16.34599,0.6416 20.79093,-1.0703 31.18858,-1.60766 10.39766,-0.53735 -14.79192,-21.00527 -22.18569,-31.51011 -7.39378,-10.50484 3.32103,15.11345 4.98375,22.66799 1.66271,7.55453 5.57175,-10.28755 8.35983,-15.43353"
             inkscape:path-effect="#path-effect63562" />
        </g>
        <path
           id="path63512"
           style="fill:#a7eabe;fill-opacity:1;stroke:#28b669;stroke-width:2.02693;stroke-linecap:round;stroke-opacity:1;paint-order:fill markers stroke"
           d="m 350.26507,189.355 c 0,44.18278 12.97447,70.0552 -82.79698,70.0552 -95.77145,0 -79.68922,-26.49397 -79.68922,-70.67675 0,-44.18278 28.35862,-57.62419 80.31077,-57.93497 51.95216,-0.31077 82.17543,14.37374 82.17543,58.55652 z"
           sodipodi:nodetypes="szszs" />
        <path
           style="font-variation-settings:normal;fill:none;fill-opacity:1;stroke:#1a7854;stroke-width:4;stroke-linecap:round;stroke-linejoin:miter;stroke-miterlimit:4;stroke-dasharray:none;stroke-dashoffset:0;stroke-opacity:1;stop-color:#000000"
           d="m 264.84283,239.31284 7.93183,-0.0939"
           id="path63514"
           inkscape:original-d="m 264.84283,239.31284 c 2.64437,-0.0622 5.28832,-0.0622 7.93183,-0.0939"
           inkscape:path-effect="#path-effect63566" />
        <path
           style="font-variation-settings:normal;fill:none;fill-opacity:1;stroke:#1a7854;stroke-width:4;stroke-linecap:round;stroke-linejoin:miter;stroke-miterlimit:4;stroke-dasharray:none;stroke-dashoffset:0;stroke-opacity:1;stop-color:#000000"
           d="m 268.74046,138.01989 c 2.44558,-0.0126 4.93455,0.76431 6.76887,2.38181 0.91716,0.80875 1.66157,1.81831 2.13005,2.94781 0.46848,1.12951 0.65717,2.37855 0.50777,3.5922 -0.27099,2.20134 -1.63157,4.15549 -3.3371,5.57341 -1.70553,1.41792 -3.74462,2.36714 -5.77867,3.25143 -2.07147,0.90056 -4.19847,1.77053 -5.94394,3.20419 -0.87273,0.71682 -1.64117,1.5732 -2.18232,2.56449 -0.54115,0.99129 -0.84851,2.12197 -0.79555,3.25011 0.0491,1.0469 0.40669,2.06764 0.95545,2.96054 0.54877,0.8929 1.28428,1.66202 2.10374,2.31539 1.63892,1.30673 3.58957,2.1476 5.47472,3.06402 1.9292,0.93784 3.83467,1.98426 5.41206,3.43794 1.57739,1.45368 2.81573,3.36076 3.12185,5.48388 0.33777,2.3426 -0.52647,4.80081 -2.16613,6.50766 -1.63966,1.70686 -4.00136,2.66155 -6.36778,2.70508 -2.38008,0.0438 -4.7924,-0.83656 -6.48261,-2.51283 -0.8451,-0.83813 -1.50584,-1.86423 -1.9004,-2.98717 -0.39457,-1.12293 -0.52071,-2.34161 -0.34485,-3.51879 0.32077,-2.14715 1.62523,-4.05423 3.26184,-5.48064 1.63661,-1.42641 3.59571,-2.4261 5.563,-3.3442 2.02691,-0.94592 4.11637,-1.83942 5.83741,-3.2681 0.86053,-0.71434 1.62095,-1.56129 2.16252,-2.5398 0.54158,-0.9785 0.85828,-2.09301 0.8249,-3.21089 -0.0322,-1.07773 -0.38871,-2.13352 -0.94907,-3.05468 -0.56036,-0.92116 -1.31955,-1.71184 -2.16894,-2.37598 -1.69878,-1.32827 -3.72928,-2.14633 -5.70682,-3.00627 -2.14578,-0.93311 -4.29296,-1.9543 -6.0555,-3.4933 -0.88127,-0.7695 -1.65897,-1.66598 -2.23638,-2.68351 -0.5774,-1.01753 -0.9509,-2.15883 -1.01784,-3.32686 -0.0671,-1.1701 0.17594,-2.35269 0.66964,-3.41565 0.49369,-1.06296 1.2349,-2.00617 2.13018,-2.76253 1.79057,-1.51273 4.1659,-2.24669 6.5099,-2.25876 z"
           id="path63516"
           inkscape:original-d="m 268.74046,138.01989 c 3.10301,-2.81253 6.27135,5.9481 9.40669,8.92182 3.13534,2.97372 -6.07696,5.88345 -9.11577,8.82484 -3.03881,2.94139 -5.94765,6.01275 -8.92181,9.01879 -2.97416,3.00604 5.68949,5.56019 8.53391,8.33995 2.84441,2.77977 5.68949,5.9481 8.53391,8.92182 2.84441,2.97372 -5.68905,6.14205 -8.53391,9.21274 -2.84486,3.0707 -5.81835,-6.0123 -8.72786,-9.01879 -2.90951,-3.00648 5.88344,-5.883 8.82484,-8.82484 2.94139,-2.94183 5.88344,-6.0123 8.82483,-9.01879 2.94139,-3.00648 -5.883,-5.6244 -8.82483,-8.43693 -2.94184,-2.81253 -6.20626,-6.33556 -9.30972,-9.50367 -3.10346,-3.16811 6.2067,-5.6244 9.30972,-8.43694 z"
           inkscape:path-effect="#path-effect63570" />
        <g
           id="g63526"
           transform="translate(-2.1072147,-1.2431004)">
          <g
             id="g63520"
             transform="translate(-1.8646506,0.22660492)">
            <path
               id="path63518"
               style="fill:#0a2b19;fill-opacity:1;stroke:none;stroke-width:24.0596;stroke-linecap:round;stroke-dasharray:none;stroke-opacity:1;paint-order:fill markers stroke"
               d="m 237.45312,201.67383 c -5.67669,9.8e-4 -10.27831,4.6026 -10.27929,10.27929 -0.0469,1.19712 -0.0763,1.47709 -0.15402,2.54445 -1.05968,0.55909 -1.94486,1.05258 -3.62425,0.85049 -1.6794,-0.20209 -3.44677,-1.42879 -5.43791,-3.68841 1.25775,3.34749 2.17558,5.79894 5.84413,7.44327 3.17773,1.10288 9.44477,3.09539 13.65134,3.13146 5.67823,1.1e-4 10.28137,-4.60303 10.28126,-10.28126 -9.8e-4,-5.67746 -4.6038,-10.2794 -10.28126,-10.27929 z"
               sodipodi:nodetypes="ccczccccc" />
          </g>
          <g
             id="g63524"
             transform="matrix(-1,0,0,1,543.69658,0.22660492)">
            <path
               id="path63522"
               style="fill:#0a2b19;fill-opacity:1;stroke:none;stroke-width:24.0596;stroke-linecap:round;stroke-dasharray:none;stroke-opacity:1;paint-order:fill markers stroke"
               d="m 237.45312,201.67383 c -5.67669,9.8e-4 -10.27831,4.6026 -10.27929,10.27929 -0.0469,1.19712 -0.0763,1.47709 -0.15402,2.54445 -1.05968,0.55909 -1.94486,1.05258 -3.62425,0.85049 -1.6794,-0.20209 -3.44677,-1.42879 -5.43791,-3.68841 1.25775,3.34749 2.17558,5.79894 5.84413,7.44327 3.17773,1.10288 9.44477,3.09539 13.65134,3.13146 5.67823,1.1e-4 10.28137,-4.60303 10.28126,-10.28126 -9.8e-4,-5.67746 -4.6038,-10.2794 -10.28126,-10.27929 z"
               sodipodi:nodetypes="ccczccccc" />
          </g>
        </g>
      </g>
      <g
         id="g63534"
         transform="matrix(1.7178282,0,0,1.7178282,-207.70979,-147.67276)">
        <path
           id="path63530"
           style="fill:#592047;fill-opacity:1;stroke-width:2;stroke-linecap:round;paint-order:fill markers stroke"
           d="m 236.45773,181.56936 c 0.59547,0.40146 -2.09494,6.14466 -1.94077,6.48046 0.15417,0.33581 7.01488,-0.0609 7.17895,0.88222 0.16404,0.94312 -9.32202,2.59166 -14.01041,3.55822 -4.68841,0.96657 -14.11999,2.24117 -14.11999,2.24117 0,0 8.43676,-3.09958 12.39398,-5.7956 3.95724,-2.69603 9.90277,-7.76795 10.49824,-7.36647 z"
           sodipodi:nodetypes="zzzzczz" />
        <path
           id="path63532"
           style="fill:#592047;fill-opacity:1;stroke-width:2;stroke-linecap:round;paint-order:fill markers stroke"
           d="m 302.87046,181.56936 c -0.59547,0.40146 2.09494,6.14466 1.94077,6.48046 -0.15417,0.33581 -7.01488,-0.0609 -7.17895,0.88222 -0.16404,0.94312 9.32202,2.59166 14.01041,3.55822 4.68841,0.96657 14.11999,2.24117 14.11999,2.24117 0,0 -8.43676,-3.09958 -12.39398,-5.7956 -3.95724,-2.69603 -9.90277,-7.76795 -10.49824,-7.36647 z"
           sodipodi:nodetypes="zzzzczz" />
      </g>
      <g
         id="g63544"
         transform="matrix(1.7178282,0,0,1.7178282,-208.82886,-147.1847)">
        <g
           id="g63538"
           transform="translate(0,-0.16481274)">
          <path
             style="font-variation-settings:normal;opacity:1;fill:none;fill-opacity:1;stroke:#ff0866;stroke-width:2;stroke-linecap:round;stroke-linejoin:miter;stroke-miterlimit:4;stroke-dasharray:none;stroke-dashoffset:0;stroke-opacity:1;stop-color:#000000;stop-opacity:1"
             d="m 217.15879,225.23505 c -1.5213,1.92348 -2.18164,4.50313 -1.77166,6.92098 0.40999,2.41786 1.88383,4.63562 3.95417,5.95008 2.07034,1.31445 4.70441,1.70478 7.06697,1.04721 2.36257,-0.65757 4.41622,-2.35263 5.50976,-4.54768 0.83791,-1.68193 1.11307,-3.67259 0.58409,-5.47569 -0.26449,-0.90156 -0.72577,-1.74756 -1.35841,-2.44219 -0.63264,-0.69464 -1.43734,-1.23533 -2.32751,-1.53592 -0.84596,-0.28566 -1.76677,-0.35215 -2.64232,-0.17706 -0.87556,0.17509 -1.70318,0.59293 -2.35438,1.20383 -0.65119,0.6109 -1.12243,1.41414 -1.32435,2.2839 -0.20192,0.86976 -0.13161,1.80276 0.21131,2.62718 0.24345,0.58529 0.62431,1.11673 1.11929,1.51275 0.49498,0.39603 1.10518,0.65295 1.73724,0.70134 0.63205,0.0484 1.28315,-0.11685 1.79961,-0.48442 0.51646,-0.36757 0.88979,-0.93919 0.99125,-1.56493 0.0938,-0.57861 -0.0482,-1.19197 -0.3868,-1.67046 -0.33859,-0.47849 -0.86975,-0.81648 -1.44662,-0.92051"
             id="path63536"
             inkscape:path-effect="#path-effect63574"
             inkscape:original-d="m 217.15879,225.23505 c 4.88362,3.12965 9.83921,6.24567 14.75924,9.37059 4.92004,3.12492 -2.06818,-6.30391 -3.10183,-9.4538 -1.03367,-3.14988 -4.07346,3.95718 -6.10974,5.93785 -2.03629,1.98067 3.76464,0.10844 5.64739,0.16474 1.88275,0.0563 -1.22257,-1.7287 -1.83342,-2.59097" />
        </g>
        <g
           id="g63542"
           transform="matrix(-1,0,0,1,540.99579,-0.1648116)">
          <path
             style="font-variation-settings:normal;opacity:1;fill:none;fill-opacity:1;stroke:#ff0866;stroke-width:2;stroke-linecap:round;stroke-linejoin:miter;stroke-miterlimit:4;stroke-dasharray:none;stroke-dashoffset:0;stroke-opacity:1;stop-color:#000000;stop-opacity:1"
             d="m 217.15879,225.23505 c -1.5213,1.92348 -2.18164,4.50313 -1.77166,6.92098 0.40999,2.41786 1.88383,4.63562 3.95417,5.95008 2.07034,1.31445 4.70441,1.70478 7.06697,1.04721 2.36257,-0.65757 4.41622,-2.35263 5.50976,-4.54768 0.83791,-1.68193 1.11307,-3.67259 0.58409,-5.47569 -0.26449,-0.90156 -0.72577,-1.74756 -1.35841,-2.44219 -0.63264,-0.69464 -1.43734,-1.23533 -2.32751,-1.53592 -0.84596,-0.28566 -1.76677,-0.35215 -2.64232,-0.17706 -0.87556,0.17509 -1.70318,0.59293 -2.35438,1.20383 -0.65119,0.6109 -1.12243,1.41414 -1.32435,2.2839 -0.20192,0.86976 -0.13161,1.80276 0.21131,2.62718 0.24345,0.58529 0.62431,1.11673 1.11929,1.51275 0.49498,0.39603 1.10518,0.65295 1.73724,0.70134 0.63205,0.0484 1.28315,-0.11685 1.79961,-0.48442 0.51646,-0.36757 0.88979,-0.93919 0.99125,-1.56493 0.0938,-0.57861 -0.0482,-1.19197 -0.3868,-1.67046 -0.33859,-0.47849 -0.86975,-0.81648 -1.44662,-0.92051"
             id="path63540"
             inkscape:path-effect="#path-effect63578"
             inkscape:original-d="m 217.15879,225.23505 c 4.88362,3.12965 9.83921,6.24567 14.75924,9.37059 4.92004,3.12492 -2.06818,-6.30391 -3.10183,-9.4538 -1.03367,-3.14988 -4.07346,3.95718 -6.10974,5.93785 -2.03629,1.98067 3.76464,0.10844 5.64739,0.16474 1.88275,0.0563 -1.22257,-1.7287 -1.83342,-2.59097" />
        </g>
      </g>
    </g>
    <path
       style="font-variation-settings:normal;fill:none;fill-opacity:1;stroke:#28b669;stroke-width:6.87131;stroke-linecap:round;stroke-linejoin:miter;stroke-miterlimit:4;stroke-dasharray:none;stroke-dashoffset:0;stroke-opacity:1;stop-color:#000000"
       d="M 256.27025,75.791097 V 38.154082"
       id="path61736"
       inkscape:path-effect="#path-effect61738"
       inkscape:original-d="m 256.27025,75.791097 c 0.002,-12.499468 0.002,-25.08962 0,-37.637015" />
    <circle
       style="fill:#a7eabe;fill-opacity:1;stroke:#28b669;stroke-width:6.60313;stroke-linecap:round;stroke-dasharray:none;stroke-opacity:1;paint-order:fill markers stroke"
       id="path61792"
       cx="256.3027"
       cy="27.316938"
       r="17.827501" />
    <g
       id="g43027"
       transform="matrix(1.7178282,0,0,1.7178282,-206.37514,-147.93969)">
      <path
         style="font-variation-settings:normal;opacity:1;vector-effect:none;fill:none;fill-opacity:1;stroke:#28b669;stroke-width:5.85265;stroke-linecap:round;stroke-linejoin:miter;stroke-miterlimit:4;stroke-dasharray:none;stroke-dashoffset:0;stroke-opacity:1;-inkscape-stroke:none;stop-color:#000000;stop-opacity:1"
         d="m 224.12421,198.53168 c -16.34525,-1.26902 -32.83859,-0.6201 -49.03361,1.92919 -5.25945,0.8279 -10.51433,1.85798 -15.83763,1.95628 -5.3233,0.0983 -10.80158,-0.79799 -15.35095,-3.56394 -4.62862,-2.81413 -8.06377,-7.54442 -9.25123,-12.82963 -1.18746,-5.28521 -0.0952,-11.05354 2.98981,-15.50623 3.08497,-4.45269 8.12699,-7.50958 13.50842,-8.12904 5.38143,-0.61946 11.0088,1.22658 14.93869,4.95479 1.77763,1.6864 3.21784,3.74337 4.09551,6.03107 0.87768,2.2877 1.18209,4.80701 0.77023,7.22244 -0.41187,2.41542 -1.55281,4.71707 -3.30016,6.43482 -1.74735,1.71775 -4.10375,2.82789 -6.54933,2.97966 -1.82883,0.1135 -3.68761,-0.30628 -5.29016,-1.1947 -1.60256,-0.88842 -2.94342,-2.24245 -3.81613,-3.85361 -0.87272,-1.61117 -1.2743,-3.47396 -1.14294,-5.30159 0.13137,-1.82763 0.79523,-3.61384 1.8894,-5.08363"
         id="path43015"
         inkscape:original-d="m 224.12421,198.53168 c -16.28949,0.64453 -32.68761,1.28759 -49.03361,1.92919 -16.34599,0.6416 -20.79093,-1.0703 -31.18858,-1.60766 -10.39766,-0.53735 14.79192,-21.00527 22.18569,-31.51011 7.39378,-10.50484 -3.32103,15.11345 -4.98375,22.66799 -1.66271,7.55453 -5.57175,-10.28755 -8.35983,-15.43353"
         inkscape:path-effect="#path-effect43017" />
      <path
         style="font-variation-settings:normal;opacity:1;vector-effect:none;fill:none;fill-opacity:1;stroke:#28b669;stroke-width:5.85265;stroke-linecap:round;stroke-linejoin:miter;stroke-miterlimit:4;stroke-dasharray:none;stroke-dashoffset:0;stroke-opacity:1;-inkscape-stroke:none;stop-color:#000000;stop-opacity:1"
         d="m 313.49329,198.53168 c 16.34525,-1.26902 32.83859,-0.6201 49.03361,1.92919 5.25945,0.8279 10.51433,1.85798 15.83763,1.95628 5.3233,0.0983 10.80158,-0.79799 15.35095,-3.56394 4.62862,-2.81413 8.06377,-7.54442 9.25123,-12.82963 1.18746,-5.28521 0.0952,-11.05354 -2.98981,-15.50623 -3.08497,-4.45269 -8.12699,-7.50958 -13.50842,-8.12904 -5.38143,-0.61946 -11.0088,1.22658 -14.93869,4.95479 -1.77763,1.6864 -3.21784,3.74337 -4.09551,6.03107 -0.87768,2.2877 -1.18209,4.80701 -0.77023,7.22244 0.41187,2.41542 1.55281,4.71707 3.30016,6.43482 1.74735,1.71775 4.10375,2.82789 6.54933,2.97966 1.82883,0.1135 3.68761,-0.30628 5.29016,-1.1947 1.60256,-0.88842 2.94342,-2.24245 3.81613,-3.85361 0.87272,-1.61117 1.2743,-3.47396 1.14294,-5.30159 -0.13137,-1.82763 -0.79523,-3.61384 -1.8894,-5.08363"
         id="path43019"
         inkscape:original-d="m 313.49329,198.53168 c 16.28949,0.64453 32.68761,1.28759 49.03361,1.92919 16.34599,0.6416 20.79093,-1.0703 31.18858,-1.60766 10.39766,-0.53735 -14.79192,-21.00527 -22.18569,-31.51011 -7.39378,-10.50484 3.32103,15.11345 4.98375,22.66799 1.66271,7.55453 5.57175,-10.28755 8.35983,-15.43353"
         inkscape:path-effect="#path-effect43023" />
    </g>
    <path
       id="circle35081"
       style="fill:#a7eabe;fill-opacity:1;stroke:#28b669;stroke-width:3.48192;stroke-linecap:round;stroke-opacity:1;paint-order:fill markers stroke"
       d="m 395.32007,177.33967 c 0,75.89842 22.28792,120.3428 -142.23098,120.3428 -164.5189,0 -136.89239,-45.51209 -136.89239,-121.41052 0,-75.89842 48.71524,-98.988456 137.9601,-99.522323 89.24489,-0.533849 141.16327,24.691613 141.16327,100.590043 z"
       sodipodi:nodetypes="szszs" />
    <path
       style="font-variation-settings:normal;fill:none;fill-opacity:1;stroke:#1a4678;stroke-width:6.87131;stroke-linecap:round;stroke-linejoin:miter;stroke-miterlimit:4;stroke-dasharray:none;stroke-dashoffset:0;stroke-opacity:1;stop-color:#000000"
       d="m 255.2748,89.154769 c 4.20109,-0.02163 8.4767,1.312946 11.62775,4.091536 1.57552,1.389296 2.8543,3.123541 3.65907,5.063839 0.80477,1.940296 1.12891,4.085936 0.87226,6.170776 -0.46551,3.78153 -2.80275,7.13842 -5.73256,9.57416 -2.92981,2.43575 -6.43261,4.06634 -9.92677,5.5854 -3.55844,1.54701 -7.21225,3.04147 -10.21067,5.50424 -1.49921,1.23138 -2.81924,2.70249 -3.74885,4.40535 -0.92961,1.70287 -1.4576,3.64519 -1.36662,5.58314 0.0844,1.79839 0.69863,3.55186 1.64131,5.0857 0.94267,1.53385 2.20616,2.85507 3.61386,3.97744 2.81539,2.24475 6.16626,3.68921 9.40463,5.26347 3.31404,1.61104 6.5873,3.40862 9.29699,5.90579 2.70969,2.49718 4.83694,5.7732 5.3628,9.42036 0.58022,4.02418 -0.90439,8.24696 -3.72105,11.17904 -2.81665,2.93209 -6.87364,4.57209 -10.93874,4.64686 -4.08856,0.0752 -8.23252,-1.43706 -11.13601,-4.3166 -1.45174,-1.43977 -2.58677,-3.20244 -3.26457,-5.13145 -0.6778,-1.92901 -0.89449,-4.02249 -0.59239,-6.04468 0.55102,-3.68843 2.79187,-6.96447 5.60328,-9.41479 2.81141,-2.45033 6.17682,-4.16764 9.55628,-5.74477 3.48188,-1.62492 7.07121,-3.15981 10.02767,-5.61403 1.47823,-1.22711 2.78451,-2.68203 3.71484,-4.36294 0.93033,-1.6809 1.47437,-3.59543 1.41703,-5.51576 -0.0553,-1.85136 -0.66774,-3.66502 -1.63034,-5.24742 -0.96259,-1.5824 -2.26676,-2.94064 -3.72587,-4.08152 -2.91821,-2.28174 -6.40626,-3.68702 -9.80333,-5.16426 -3.68609,-1.60292 -7.37456,-3.35716 -10.40231,-6.00089 -1.51387,-1.32187 -2.84983,-2.86186 -3.84171,-4.60981 -0.99188,-1.74794 -1.63348,-3.7085 -1.74848,-5.71497 -0.1152,-2.01002 0.30224,-4.04152 1.15032,-5.867505 0.84808,-1.825985 2.12135,-3.446241 3.65929,-4.745547 3.07589,-2.598612 7.1563,-3.859429 11.18289,-3.880159 z"
       id="path38984"
       inkscape:original-d="m 255.2748,89.154769 c 5.33044,-4.831443 10.7731,10.217814 16.15908,15.326151 5.38597,5.10834 -10.43918,10.10676 -15.65933,15.15956 -5.22015,5.0528 -10.21704,10.32887 -15.32614,15.49273 -5.10909,5.16386 9.77357,9.55146 14.6598,14.32661 4.8862,4.77516 9.77356,10.21781 14.65979,15.32615 4.8862,5.10834 -9.77281,10.55099 -14.65979,15.8259 -4.88699,5.27494 -9.99493,-10.32809 -14.99297,-15.49273 -4.99804,-5.16461 10.10674,-10.10598 15.15956,-15.15956 5.0528,-5.05356 10.10674,-10.3281 15.15954,-15.49273 5.05281,-5.16461 -10.10598,-9.66175 -15.15954,-14.4932 -5.05358,-4.83144 -10.66129,-10.8834 -15.9925,-16.32567 -5.33121,-5.442266 10.66205,-9.66175 15.9925,-14.493211 z"
       inkscape:path-effect="#path-effect38986" />
    <path
       id="rect56299"
       style="fill:#17208e;fill-opacity:1;stroke-width:3.43566;stroke-linecap:round;paint-order:fill markers stroke"
       d="m 202.0956,173.32497 c 0.54104,1.1087 -8.39435,7.34193 -8.45341,7.9739 -0.0591,0.632 10.48822,5.93459 9.92225,7.47858 -0.56602,1.54395 -16.09422,-4.15126 -23.89926,-6.74024 -7.80506,-2.58899 -22.93103,-8.79371 -22.93103,-8.79371 0,0 15.21349,2.63526 23.41622,2.02335 8.20278,-0.61191 21.40419,-3.05062 21.94523,-1.94188 z"
       sodipodi:nodetypes="zzzzczz" />
    <path
       id="path57028"
       style="fill:#17208e;fill-opacity:1;stroke-width:3.43566;stroke-linecap:round;paint-order:fill markers stroke"
       d="m 308.958,173.32496 c -0.54105,1.10871 8.39434,7.34194 8.45341,7.97391 0.0591,0.63201 -10.48823,5.93459 -9.92225,7.47858 0.56601,1.54395 16.09422,-4.15125 23.89925,-6.74024 7.80506,-2.58899 22.93104,-8.79371 22.93104,-8.79371 0,0 -15.2135,2.63526 -23.41623,2.02335 -8.20278,-0.61191 -21.40419,-3.05062 -21.94522,-1.94189 z"
       sodipodi:nodetypes="zzzzczz" />
    <g
       id="g61720"
       transform="matrix(1.7178282,0,0,1.7178282,-208.82886,-147.46782)"
       style="stroke:#023ae9;stroke-opacity:1">
      <path
         style="font-variation-settings:normal;opacity:1;fill:none;fill-opacity:1;stroke:#023ae9;stroke-width:2;stroke-linecap:round;stroke-linejoin:miter;stroke-miterlimit:4;stroke-dasharray:none;stroke-dashoffset:0;stroke-opacity:1;stop-color:#000000;stop-opacity:1"
         d="m 217.15879,225.23505 c -1.5213,1.92348 -2.18164,4.50313 -1.77166,6.92098 0.40999,2.41786 1.88383,4.63562 3.95417,5.95008 2.07034,1.31445 4.70441,1.70478 7.06697,1.04721 2.36257,-0.65757 4.41622,-2.35263 5.50976,-4.54768 0.83791,-1.68193 1.11307,-3.67259 0.58409,-5.47569 -0.26449,-0.90156 -0.72577,-1.74756 -1.35841,-2.44219 -0.63264,-0.69464 -1.43734,-1.23533 -2.32751,-1.53592 -0.84596,-0.28566 -1.76677,-0.35215 -2.64232,-0.17706 -0.87556,0.17509 -1.70318,0.59293 -2.35438,1.20383 -0.65119,0.6109 -1.12243,1.41414 -1.32435,2.2839 -0.20192,0.86976 -0.13161,1.80276 0.21131,2.62718 0.24345,0.58529 0.62431,1.11673 1.11929,1.51275 0.49498,0.39603 1.10518,0.65295 1.73724,0.70134 0.63205,0.0484 1.28315,-0.11685 1.79961,-0.48442 0.51646,-0.36757 0.88979,-0.93919 0.99125,-1.56493 0.0938,-0.57861 -0.0482,-1.19197 -0.3868,-1.67046 -0.33859,-0.47849 -0.86975,-0.81648 -1.44662,-0.92051"
         id="path61715"
         inkscape:path-effect="#path-effect61717"
         inkscape:original-d="m 217.15879,225.23505 c 4.88362,3.12965 9.83921,6.24567 14.75924,9.37059 4.92004,3.12492 -2.06818,-6.30391 -3.10183,-9.4538 -1.03367,-3.14988 -4.07346,3.95718 -6.10974,5.93785 -2.03629,1.98067 3.76464,0.10844 5.64739,0.16474 1.88275,0.0563 -1.22257,-1.7287 -1.83342,-2.59097" />
    </g>
    <g
       id="g61724"
       transform="matrix(-1.7178282,0,0,1.7178282,720.50896,-147.46782)"
       style="stroke:#023ae9;stroke-opacity:1">
      <path
         style="font-variation-settings:normal;opacity:1;fill:none;fill-opacity:1;stroke:#023ae9;stroke-width:2;stroke-linecap:round;stroke-linejoin:miter;stroke-miterlimit:4;stroke-dasharray:none;stroke-dashoffset:0;stroke-opacity:1;stop-color:#000000;stop-opacity:1"
         d="m 217.15879,225.23505 c -1.5213,1.92348 -2.18164,4.50313 -1.77166,6.92098 0.40999,2.41786 1.88383,4.63562 3.95417,5.95008 2.07034,1.31445 4.70441,1.70478 7.06697,1.04721 2.36257,-0.65757 4.41622,-2.35263 5.50976,-4.54768 0.83791,-1.68193 1.11307,-3.67259 0.58409,-5.47569 -0.26449,-0.90156 -0.72577,-1.74756 -1.35841,-2.44219 -0.63264,-0.69464 -1.43734,-1.23533 -2.32751,-1.53592 -0.84596,-0.28566 -1.76677,-0.35215 -2.64232,-0.17706 -0.87556,0.17509 -1.70318,0.59293 -2.35438,1.20383 -0.65119,0.6109 -1.12243,1.41414 -1.32435,2.2839 -0.20192,0.86976 -0.13161,1.80276 0.21131,2.62718 0.24345,0.58529 0.62431,1.11673 1.11929,1.51275 0.49498,0.39603 1.10518,0.65295 1.73724,0.70134 0.63205,0.0484 1.28315,-0.11685 1.79961,-0.48442 0.51646,-0.36757 0.88979,-0.93919 0.99125,-1.56493 0.0938,-0.57861 -0.0482,-1.19197 -0.3868,-1.67046 -0.33859,-0.47849 -0.86975,-0.81648 -1.44662,-0.92051"
         id="path61722"
         inkscape:path-effect="#path-effect61728"
         inkscape:original-d="m 217.15879,225.23505 c 4.88362,3.12965 9.83921,6.24567 14.75924,9.37059 4.92004,3.12492 -2.06818,-6.30391 -3.10183,-9.4538 -1.03367,-3.14988 -4.07346,3.95718 -6.10974,5.93785 -2.03629,1.98067 3.76464,0.10844 5.64739,0.16474 1.88275,0.0563 -1.22257,-1.7287 -1.83342,-2.59097" />
    </g>
    <path
       style="font-variation-settings:normal;vector-effect:none;fill:none;fill-opacity:1;stroke:#1a7854;stroke-width:27.4853;stroke-linecap:round;stroke-linejoin:miter;stroke-miterlimit:4;stroke-dasharray:none;stroke-dashoffset:0;stroke-opacity:1;-inkscape-stroke:none;stop-color:#000000"
       d="m 821.53924,751.19269 c -0.62671,7.82672 -3.84744,15.42385 -9.03683,21.31626 -5.18939,5.89242 -12.31861,10.04738 -20.00339,11.65812 -7.68478,1.61075 -15.88242,0.66833 -23.0012,-2.64427 -7.11878,-3.31259 -13.11915,-8.97696 -16.83602,-15.89326 -3.14217,-5.8469 -4.64498,-12.46206 -5.21066,-19.07565 -0.56567,-6.61358 -0.22731,-13.26747 0.12013,-19.8961 0.34744,-6.62864 0.70339,-13.28042 0.17261,-19.8969 -0.53078,-6.61648 -1.98017,-13.23996 -5.06048,-19.11969 -3.44944,-6.58433 -8.93105,-12.08599 -15.50275,-15.55944 -6.5717,-3.47345 -14.20521,-4.90375 -21.58862,-4.04509 -7.38341,0.85866 -14.48495,4.0026 -20.08415,8.89148 -5.59919,4.88888 -9.67193,11.50167 -11.51828,18.70188"
       id="path63954"
       inkscape:path-effect="#path-effect64002"
       inkscape:original-d="m 821.53924,751.19269 c -22.95838,4.81459 -45.91753,9.62686 -68.87744,14.43685 -22.95996,4.80998 -6.65148,-51.98992 -9.9784,-77.98834 -3.3269,-25.99842 -45.79508,5.32819 -68.6938,7.98883" />
    <path
       id="path63956"
       style="fill:#a7eabe;stroke:#28b669;stroke-width:4.34614;stroke-linecap:round;stroke-opacity:1;paint-order:fill markers stroke"
       d="m 882.41502,739.03654 c 4.2088,11.32765 9.5471,20.31038 14.65249,28.34382 -0.39733,3.56434 -6.10985,19.05527 -2.19286,20.06881 3.91698,1.01352 9.86435,-8.16017 13.22226,-8.88313 1.84569,2.88021 4.76507,10.97405 6.21722,10.63423 2.83744,-0.66396 2.41346,-3.49511 3.24442,-10.84936 3.15732,3.45907 8.26544,6.58794 8.93919,6.27107 2.20124,-1.03519 -0.23229,-6.44606 -1.39902,-10.43326 8.03655,3.4107 8.76,5.94437 11.92369,3.88385 3.16367,-2.06048 -9.04267,-14.28106 -17.42868,-19.8231 -1.96796,-8.19093 -2.12332,-22.22464 -6.28395,-33.42266 -9.97142,-26.83726 -24.30261,-44.74261 -39.38568,-39.13847 -15.08304,5.60414 -1.48051,26.51093 8.49092,53.3482 z"
       sodipodi:nodetypes="sczcscsczcsss" />
    <g
       id="g63962"
       transform="matrix(1.7178282,0,0,1.7178282,383.62486,212.06031)">
      <path
         id="path63958"
         style="fill:#28b669;fill-opacity:1;stroke:none;stroke-width:2.73247;stroke-linecap:round;paint-order:fill markers stroke"
         d="m 304.87274,309.23849 c 3.17107,21.44121 -14.44182,71.34751 -21.14013,72.16606 -6.45485,0.7888 -9.8134,-38.61666 -14.83215,-38.19206 -5.01874,0.42458 -12.39521,35.95167 -19.59686,36.28741 -7.39142,0.34456 -21.77937,-47.72466 -18.74088,-69.06673 2.75986,-19.38496 15.43394,-45.99082 23.98439,-62.3258 0.62305,-1.19028 8.75438,-1.74717 14.22665,-1.57363 4.72902,0.14997 13.71615,0.47719 14.18907,1.39896 7.33903,14.3043 18.59578,38.89713 21.90991,61.30579 z"
         sodipodi:nodetypes="sszssssss" />
      <path
         sodipodi:type="star"
         style="fill:#a7eabe;fill-opacity:1;stroke:none;stroke-width:2;stroke-linecap:round;stroke-dasharray:none;stroke-opacity:1;paint-order:fill markers stroke"
         id="path63960"
         inkscape:flatsided="false"
         sodipodi:sides="5"
         sodipodi:cx="272.54977"
         sodipodi:cy="296.16867"
         sodipodi:r1="15.541863"
         sodipodi:r2="7.7709312"
         sodipodi:arg1="-1.5707963"
         sodipodi:arg2="-0.9424778"
         inkscape:rounded="0.1"
         inkscape:randomized="0"
         d="m 272.54977,280.62681 c 1.03209,0 3.73267,8.6484 4.56764,9.25505 0.83497,0.60664 9.89462,0.50254 10.21355,1.48411 0.31894,0.98157 -7.07166,6.22248 -7.39059,7.20405 -0.31893,0.98157 2.57965,9.56564 1.74468,10.17228 -0.83497,0.60664 -8.10319,-4.8027 -9.13528,-4.8027 -1.03208,0 -8.3003,5.40934 -9.13527,4.8027 -0.83498,-0.60664 2.06361,-9.19071 1.74468,-10.17228 -0.31893,-0.98157 -7.70953,-6.22248 -7.3906,-7.20405 0.31893,-0.98157 9.37858,-0.87747 10.21356,-1.48411 0.83497,-0.60665 3.53555,-9.25505 4.56763,-9.25505 z"
         inkscape:transform-center-y="-1.416653"
         transform="translate(0.32962678,-4.0653969)" />
    </g>
    <path
       id="path63964"
       style="fill:#a7eabe;stroke:#28b669;stroke-width:4.34614;stroke-linecap:round;stroke-opacity:1;paint-order:fill markers stroke"
       d="m 804.85186,731.56251 c -4.2088,11.32765 -9.5471,20.31038 -14.65249,28.34382 0.39734,3.56434 6.10985,19.05527 2.19286,20.06881 -3.91697,1.01352 -9.86435,-8.16017 -13.22226,-8.88313 -1.84568,2.88021 -4.76506,10.97405 -6.21721,10.63423 -2.83744,-0.66396 -2.41347,-3.49511 -3.24443,-10.84936 -3.15732,3.45907 -8.26544,6.58794 -8.93918,6.27107 -2.20125,-1.03519 0.23228,-6.44606 1.39901,-10.43326 -8.03655,3.4107 -8.75999,5.94437 -11.92368,3.88385 -3.16368,-2.06048 9.04266,-14.28106 17.42867,-19.8231 1.96796,-8.19093 2.12332,-22.22464 6.28395,-33.42266 9.97143,-26.83726 24.30262,-44.74261 39.38568,-39.13847 15.08305,5.60414 1.48051,26.51093 -8.49092,53.3482 z"
       sodipodi:nodetypes="sczcscsczcsss" />
    <g
       id="g63998"
       transform="translate(590,360)">
      <path
         style="font-variation-settings:normal;fill:none;fill-opacity:1;stroke:#28b669;stroke-width:6.87131;stroke-linecap:round;stroke-linejoin:miter;stroke-miterlimit:4;stroke-dasharray:none;stroke-dashoffset:0;stroke-opacity:1;stop-color:#000000"
         d="M 256.27025,75.791097 V 38.154082"
         id="path63966"
         inkscape:path-effect="#path-effect64006"
         inkscape:original-d="m 256.27025,75.791097 c 0.002,-12.499468 0.002,-25.08962 0,-37.637015" />
      <circle
         style="fill:#a7eabe;fill-opacity:1;stroke:#28b669;stroke-width:6.60313;stroke-linecap:round;stroke-dasharray:none;stroke-opacity:1;paint-order:fill markers stroke"
         id="circle63968"
         cx="256.3027"
         cy="27.316938"
         r="17.827501" />
      <g
         id="g63974"
         transform="matrix(1.7178282,0,0,1.7178282,-206.37514,-147.93969)">
        <path
           style="font-variation-settings:normal;opacity:1;vector-effect:none;fill:none;fill-opacity:1;stroke:#28b669;stroke-width:5.85265;stroke-linecap:round;stroke-linejoin:miter;stroke-miterlimit:4;stroke-dasharray:none;stroke-dashoffset:0;stroke-opacity:1;-inkscape-stroke:none;stop-color:#000000;stop-opacity:1"
           d="m 224.12421,198.53168 c -16.34525,-1.26902 -32.83859,-0.6201 -49.03361,1.92919 -5.25945,0.8279 -10.51433,1.85798 -15.83763,1.95628 -5.3233,0.0983 -10.80158,-0.79799 -15.35095,-3.56394 -4.62862,-2.81413 -8.06377,-7.54442 -9.25123,-12.82963 -1.18746,-5.28521 -0.0952,-11.05354 2.98981,-15.50623 3.08497,-4.45269 8.12699,-7.50958 13.50842,-8.12904 5.38143,-0.61946 11.0088,1.22658 14.93869,4.95479 1.77763,1.6864 3.21784,3.74337 4.09551,6.03107 0.87768,2.2877 1.18209,4.80701 0.77023,7.22244 -0.41187,2.41542 -1.55281,4.71707 -3.30016,6.43482 -1.74735,1.71775 -4.10375,2.82789 -6.54933,2.97966 -1.82883,0.1135 -3.68761,-0.30628 -5.29016,-1.1947 -1.60256,-0.88842 -2.94342,-2.24245 -3.81613,-3.85361 -0.87272,-1.61117 -1.2743,-3.47396 -1.14294,-5.30159 0.13137,-1.82763 0.79523,-3.61384 1.8894,-5.08363"
           id="path63970"
           inkscape:original-d="m 224.12421,198.53168 c -16.28949,0.64453 -32.68761,1.28759 -49.03361,1.92919 -16.34599,0.6416 -20.79093,-1.0703 -31.18858,-1.60766 -10.39766,-0.53735 14.79192,-21.00527 22.18569,-31.51011 7.39378,-10.50484 -3.32103,15.11345 -4.98375,22.66799 -1.66271,7.55453 -5.57175,-10.28755 -8.35983,-15.43353"
           inkscape:path-effect="#path-effect64010" />
        <path
           style="font-variation-settings:normal;opacity:1;vector-effect:none;fill:none;fill-opacity:1;stroke:#28b669;stroke-width:5.85265;stroke-linecap:round;stroke-linejoin:miter;stroke-miterlimit:4;stroke-dasharray:none;stroke-dashoffset:0;stroke-opacity:1;-inkscape-stroke:none;stop-color:#000000;stop-opacity:1"
           d="m 313.49329,198.53168 c 16.34525,-1.26902 32.83859,-0.6201 49.03361,1.92919 5.25945,0.8279 10.51433,1.85798 15.83763,1.95628 5.3233,0.0983 10.80158,-0.79799 15.35095,-3.56394 4.62862,-2.81413 8.06377,-7.54442 9.25123,-12.82963 1.18746,-5.28521 0.0952,-11.05354 -2.98981,-15.50623 -3.08497,-4.45269 -8.12699,-7.50958 -13.50842,-8.12904 -5.38143,-0.61946 -11.0088,1.22658 -14.93869,4.95479 -1.77763,1.6864 -3.21784,3.74337 -4.09551,6.03107 -0.87768,2.2877 -1.18209,4.80701 -0.77023,7.22244 0.41187,2.41542 1.55281,4.71707 3.30016,6.43482 1.74735,1.71775 4.10375,2.82789 6.54933,2.97966 1.82883,0.1135 3.68761,-0.30628 5.29016,-1.1947 1.60256,-0.88842 2.94342,-2.24245 3.81613,-3.85361 0.87272,-1.61117 1.2743,-3.47396 1.14294,-5.30159 -0.13137,-1.82763 -0.79523,-3.61384 -1.8894,-5.08363"
           id="path63972"
           inkscape:original-d="m 313.49329,198.53168 c 16.28949,0.64453 32.68761,1.28759 49.03361,1.92919 16.34599,0.6416 20.79093,-1.0703 31.18858,-1.60766 10.39766,-0.53735 -14.79192,-21.00527 -22.18569,-31.51011 -7.39378,-10.50484 3.32103,15.11345 4.98375,22.66799 1.66271,7.55453 5.57175,-10.28755 8.35983,-15.43353"
           inkscape:path-effect="#path-effect64014" />
      </g>
      <path
         id="path63976"
         style="fill:#a7eabe;fill-opacity:1;stroke:#28b669;stroke-width:3.48192;stroke-linecap:round;stroke-opacity:1;paint-order:fill markers stroke"
         d="m 395.32007,177.33967 c 0,75.89842 22.28792,120.3428 -142.23098,120.3428 -164.5189,0 -136.89239,-45.51209 -136.89239,-121.41052 0,-75.89842 48.71524,-98.988456 137.9601,-99.522323 89.24489,-0.533849 141.16327,24.691613 141.16327,100.590043 z"
         sodipodi:nodetypes="szszs" />
      <path
         style="font-variation-settings:normal;fill:none;fill-opacity:1;stroke:#1a7854;stroke-width:6.87131;stroke-linecap:round;stroke-linejoin:miter;stroke-miterlimit:4;stroke-dasharray:none;stroke-dashoffset:0;stroke-opacity:1;stop-color:#000000"
         d="m 237.70434,263.40866 c 4.62965,-5.83611 12.09229,-9.31179 19.5387,-9.10005 6.81399,0.19376 13.48386,3.44281 17.83682,8.68874"
         id="path63978"
         inkscape:original-d="m 237.70434,263.40866 c 2.26902,-0.0534 11.33849,-9.01746 19.5387,-9.10005 8.21662,-0.0828 15.564,8.716 17.83682,8.68874"
         inkscape:path-effect="#path-effect64018"
         sodipodi:nodetypes="csc" />
      <path
         style="font-variation-settings:normal;fill:none;fill-opacity:1;stroke:#1a7854;stroke-width:6.87131;stroke-linecap:round;stroke-linejoin:miter;stroke-miterlimit:4;stroke-dasharray:none;stroke-dashoffset:0;stroke-opacity:1;stop-color:#000000"
         d="m 255.2748,89.154769 c 4.20109,-0.02163 8.4767,1.312946 11.62775,4.091536 1.57552,1.389296 2.8543,3.123541 3.65907,5.063839 0.80477,1.940296 1.12891,4.085936 0.87226,6.170776 -0.46551,3.78153 -2.80275,7.13842 -5.73256,9.57416 -2.92981,2.43575 -6.43261,4.06634 -9.92677,5.5854 -3.55844,1.54701 -7.21225,3.04147 -10.21067,5.50424 -1.49921,1.23138 -2.81924,2.70249 -3.74885,4.40535 -0.92961,1.70287 -1.4576,3.64519 -1.36662,5.58314 0.0844,1.79839 0.69863,3.55186 1.64131,5.0857 0.94267,1.53385 2.20616,2.85507 3.61386,3.97744 2.81539,2.24475 6.16626,3.68921 9.40463,5.26347 3.31404,1.61104 6.5873,3.40862 9.29699,5.90579 2.70969,2.49718 4.83694,5.7732 5.3628,9.42036 0.58022,4.02418 -0.90439,8.24696 -3.72105,11.17904 -2.81665,2.93209 -6.87364,4.57209 -10.93874,4.64686 -4.08856,0.0752 -8.23252,-1.43706 -11.13601,-4.3166 -1.45174,-1.43977 -2.58677,-3.20244 -3.26457,-5.13145 -0.6778,-1.92901 -0.89449,-4.02249 -0.59239,-6.04468 0.55102,-3.68843 2.79187,-6.96447 5.60328,-9.41479 2.81141,-2.45033 6.17682,-4.16764 9.55628,-5.74477 3.48188,-1.62492 7.07121,-3.15981 10.02767,-5.61403 1.47823,-1.22711 2.78451,-2.68203 3.71484,-4.36294 0.93033,-1.6809 1.47437,-3.59543 1.41703,-5.51576 -0.0553,-1.85136 -0.66774,-3.66502 -1.63034,-5.24742 -0.96259,-1.5824 -2.26676,-2.94064 -3.72587,-4.08152 -2.91821,-2.28174 -6.40626,-3.68702 -9.80333,-5.16426 -3.68609,-1.60292 -7.37456,-3.35716 -10.40231,-6.00089 -1.51387,-1.32187 -2.84983,-2.86186 -3.84171,-4.60981 -0.99188,-1.74794 -1.63348,-3.7085 -1.74848,-5.71497 -0.1152,-2.01002 0.30224,-4.04152 1.15032,-5.867505 0.84808,-1.825985 2.12135,-3.446241 3.65929,-4.745547 3.07589,-2.598612 7.1563,-3.859429 11.18289,-3.880159 z"
         id="path63980"
         inkscape:original-d="m 255.2748,89.154769 c 5.33044,-4.831443 10.7731,10.217814 16.15908,15.326151 5.38597,5.10834 -10.43918,10.10676 -15.65933,15.15956 -5.22015,5.0528 -10.21704,10.32887 -15.32614,15.49273 -5.10909,5.16386 9.77357,9.55146 14.6598,14.32661 4.8862,4.77516 9.77356,10.21781 14.65979,15.32615 4.8862,5.10834 -9.77281,10.55099 -14.65979,15.8259 -4.88699,5.27494 -9.99493,-10.32809 -14.99297,-15.49273 -4.99804,-5.16461 10.10674,-10.10598 15.15956,-15.15956 5.0528,-5.05356 10.10674,-10.3281 15.15954,-15.49273 5.05281,-5.16461 -10.10598,-9.66175 -15.15954,-14.4932 -5.05358,-4.83144 -10.66129,-10.8834 -15.9925,-16.32567 -5.33121,-5.442266 10.66205,-9.66175 15.9925,-14.493211 z"
         inkscape:path-effect="#path-effect64022" />
      <path
         id="path63982"
         style="fill:#592047;fill-opacity:1;stroke-width:3.43566;stroke-linecap:round;paint-order:fill markers stroke"
         d="m 202.0956,173.32497 c 0.54104,1.1087 -8.39435,7.34193 -8.45341,7.9739 -0.0591,0.632 10.48822,5.93459 9.92225,7.47858 -0.56602,1.54395 -16.09422,-4.15126 -23.89926,-6.74024 -7.80506,-2.58899 -22.93103,-8.79371 -22.93103,-8.79371 0,0 15.21349,2.63526 23.41622,2.02335 8.20278,-0.61191 21.40419,-3.05062 21.94523,-1.94188 z"
         sodipodi:nodetypes="zzzzczz" />
      <path
         id="path63984"
         style="fill:#592047;fill-opacity:1;stroke-width:3.43566;stroke-linecap:round;paint-order:fill markers stroke"
         d="m 308.958,173.32496 c -0.54105,1.10871 8.39434,7.34194 8.45341,7.97391 0.0591,0.63201 -10.48823,5.93459 -9.92225,7.47858 0.56601,1.54395 16.09422,-4.15125 23.89925,-6.74024 7.80506,-2.58899 22.93104,-8.79371 22.93104,-8.79371 0,0 -15.2135,2.63526 -23.41623,2.02335 -8.20278,-0.61191 -21.40419,-3.05062 -21.94522,-1.94189 z"
         sodipodi:nodetypes="zzzzczz" />
      <g
         id="g63988"
         transform="matrix(1.7178282,0,0,1.7178282,-208.82886,-147.46782)">
        <path
           style="font-variation-settings:normal;opacity:1;fill:none;fill-opacity:1;stroke:#ff0866;stroke-width:2;stroke-linecap:round;stroke-linejoin:miter;stroke-miterlimit:4;stroke-dasharray:none;stroke-dashoffset:0;stroke-opacity:1;stop-color:#000000;stop-opacity:1"
           d="m 217.15879,225.23505 c -1.5213,1.92348 -2.18164,4.50313 -1.77166,6.92098 0.40999,2.41786 1.88383,4.63562 3.95417,5.95008 2.07034,1.31445 4.70441,1.70478 7.06697,1.04721 2.36257,-0.65757 4.41622,-2.35263 5.50976,-4.54768 0.83791,-1.68193 1.11307,-3.67259 0.58409,-5.47569 -0.26449,-0.90156 -0.72577,-1.74756 -1.35841,-2.44219 -0.63264,-0.69464 -1.43734,-1.23533 -2.32751,-1.53592 -0.84596,-0.28566 -1.76677,-0.35215 -2.64232,-0.17706 -0.87556,0.17509 -1.70318,0.59293 -2.35438,1.20383 -0.65119,0.6109 -1.12243,1.41414 -1.32435,2.2839 -0.20192,0.86976 -0.13161,1.80276 0.21131,2.62718 0.24345,0.58529 0.62431,1.11673 1.11929,1.51275 0.49498,0.39603 1.10518,0.65295 1.73724,0.70134 0.63205,0.0484 1.28315,-0.11685 1.79961,-0.48442 0.51646,-0.36757 0.88979,-0.93919 0.99125,-1.56493 0.0938,-0.57861 -0.0482,-1.19197 -0.3868,-1.67046 -0.33859,-0.47849 -0.86975,-0.81648 -1.44662,-0.92051"
           id="path63986"
           inkscape:path-effect="#path-effect64026"
           inkscape:original-d="m 217.15879,225.23505 c 4.88362,3.12965 9.83921,6.24567 14.75924,9.37059 4.92004,3.12492 -2.06818,-6.30391 -3.10183,-9.4538 -1.03367,-3.14988 -4.07346,3.95718 -6.10974,5.93785 -2.03629,1.98067 3.76464,0.10844 5.64739,0.16474 1.88275,0.0563 -1.22257,-1.7287 -1.83342,-2.59097" />
      </g>
      <g
         id="g63992"
         transform="matrix(-1.7178282,0,0,1.7178282,720.50896,-147.46782)">
        <path
           style="font-variation-settings:normal;opacity:1;fill:none;fill-opacity:1;stroke:#ff0866;stroke-width:2;stroke-linecap:round;stroke-linejoin:miter;stroke-miterlimit:4;stroke-dasharray:none;stroke-dashoffset:0;stroke-opacity:1;stop-color:#000000;stop-opacity:1"
           d="m 217.15879,225.23505 c -1.5213,1.92348 -2.18164,4.50313 -1.77166,6.92098 0.40999,2.41786 1.88383,4.63562 3.95417,5.95008 2.07034,1.31445 4.70441,1.70478 7.06697,1.04721 2.36257,-0.65757 4.41622,-2.35263 5.50976,-4.54768 0.83791,-1.68193 1.11307,-3.67259 0.58409,-5.47569 -0.26449,-0.90156 -0.72577,-1.74756 -1.35841,-2.44219 -0.63264,-0.69464 -1.43734,-1.23533 -2.32751,-1.53592 -0.84596,-0.28566 -1.76677,-0.35215 -2.64232,-0.17706 -0.87556,0.17509 -1.70318,0.59293 -2.35438,1.20383 -0.65119,0.6109 -1.12243,1.41414 -1.32435,2.2839 -0.20192,0.86976 -0.13161,1.80276 0.21131,2.62718 0.24345,0.58529 0.62431,1.11673 1.11929,1.51275 0.49498,0.39603 1.10518,0.65295 1.73724,0.70134 0.63205,0.0484 1.28315,-0.11685 1.79961,-0.48442 0.51646,-0.36757 0.88979,-0.93919 0.99125,-1.56493 0.0938,-0.57861 -0.0482,-1.19197 -0.3868,-1.67046 -0.33859,-0.47849 -0.86975,-0.81648 -1.44662,-0.92051"
           id="path63990"
           inkscape:path-effect="#path-effect64030"
           inkscape:original-d="m 217.15879,225.23505 c 4.88362,3.12965 9.83921,6.24567 14.75924,9.37059 4.92004,3.12492 -2.06818,-6.30391 -3.10183,-9.4538 -1.03367,-3.14988 -4.07346,3.95718 -6.10974,5.93785 -2.03629,1.98067 3.76464,0.10844 5.64739,0.16474 1.88275,0.0563 -1.22257,-1.7287 -1.83342,-2.59097" />
      </g>
      <path
         id="path63994"
         style="fill:#0a2b19;stroke-width:4;stroke-linecap:round;paint-order:fill markers stroke"
         inkscape:transform-center-y="-4.6798347"
         d="m 176.67996,192.11332 c 0.74806,-0.98888 31.43948,20.35039 32.30794,21.85462 0.86847,1.50423 4.49889,9.9122 3.63043,11.41644 -0.86847,1.50423 -14.9732,2.96664 -16.71014,2.96664 -0.87594,0 -17.14523,-0.39802 -19.60729,-1.5539 -2.93372,-1.37732 -14.36231,-11.65467 -14.79281,-12.40031 -0.44106,-0.76395 9.55532,2.82463 19.01492,4.26845 4.80479,0.73336 17.48039,1.20712 17.9078,0.46683 0.86847,-1.50423 -22.79874,-25.63354 -21.75085,-27.01877 z"
         sodipodi:nodetypes="sssssssss" />
      <path
         id="path63996"
         style="fill:#0a2b19;fill-opacity:1;stroke-width:4;stroke-linecap:round;paint-order:fill markers stroke"
         inkscape:transform-center-y="-4.6798347"
         d="m 334.29321,191.91532 c -0.74806,-0.98888 -31.43948,20.35039 -32.30794,21.85462 -0.86847,1.50423 -4.49889,9.9122 -3.63043,11.41644 0.86847,1.50423 14.9732,2.96664 16.71014,2.96664 0.87594,0 17.14523,-0.39802 19.60729,-1.5539 2.93372,-1.37732 14.36231,-11.65467 14.79281,-12.40031 0.44106,-0.76395 -9.55532,2.82463 -19.01492,4.26845 -4.80479,0.73336 -17.48039,1.20712 -17.9078,0.46683 -0.86847,-1.50423 22.79874,-25.63354 21.75085,-27.01877 z"
         sodipodi:nodetypes="sssssssss"
         inkscape:transform-center-x="-1.2631939e-06" />
    </g>
    <g
       id="g64051"
       style="fill:#0a2b19;fill-opacity:1">
      <path
         id="path64048"
         style="fill:#0a2b19;fill-opacity:1;stroke-width:4;stroke-linecap:round;paint-order:fill markers stroke"
         inkscape:transform-center-y="-4.6798347"
         d="m 216.64415,214.68669 c 0.86847,1.50423 -3.15736,9.19345 -4.02582,10.69769 -0.86847,1.50423 -14.9732,2.96664 -16.71014,2.96664 -0.87594,0 -17.14523,-0.39802 -19.60729,-1.5539 -2.93372,-1.37732 -14.36231,-11.65467 -14.79281,-12.40031 -0.44106,-0.76395 9.55532,2.82463 19.01492,4.26845 4.80479,0.73336 18.14394,1.41034 18.14394,1.41034 z"
         sodipodi:nodetypes="cssssscc" />
    </g>
    <g
       id="g64055"
       transform="matrix(-1,0,0,1,510.98032,-0.20299845)"
       style="fill:#0a2b19;fill-opacity:1">
      <path
         id="path64053"
         style="fill:#0a2b19;fill-opacity:1;stroke-width:4;stroke-linecap:round;paint-order:fill markers stroke"
         inkscape:transform-center-y="-4.6798347"
         d="m 216.64415,214.68669 c 0.86847,1.50423 -3.15736,9.19345 -4.02582,10.69769 -0.86847,1.50423 -14.9732,2.96664 -16.71014,2.96664 -0.87594,0 -17.14523,-0.39802 -19.60729,-1.5539 -2.93372,-1.37732 -14.36231,-11.65467 -14.79281,-12.40031 -0.44106,-0.76395 9.55532,2.82463 19.01492,4.26845 4.80479,0.73336 18.14394,1.41034 18.14394,1.41034 z"
         sodipodi:nodetypes="cssssscc" />
    </g>
  </g>
</svg>
