<?xml version="1.0" encoding="UTF-8" standalone="no"?>
<!-- Created with Inkscape (http://www.inkscape.org/) -->

<svg
   width="512"
   height="512"
   viewBox="0 0 512 512"
   version="1.1"
   id="SVGRoot"
   sodipodi:docname="glimmered.svg"
   inkscape:version="1.3.2 (091e20e, 2023-11-25, custom)"
   inkscape:export-filename="..\bodies\body 1.png"
   inkscape:export-xdpi="96"
   inkscape:export-ydpi="96"
   xmlns:inkscape="http://www.inkscape.org/namespaces/inkscape"
   xmlns:sodipodi="http://sodipodi.sourceforge.net/DTD/sodipodi-0.dtd"
   xmlns="http://www.w3.org/2000/svg"
   xmlns:svg="http://www.w3.org/2000/svg">
  <sodipodi:namedview
     id="namedview27902"
     pagecolor="#070917"
     bordercolor="#666666"
     borderopacity="1.0"
     inkscape:showpageshadow="2"
     inkscape:pageopacity="0"
     inkscape:pagecheckerboard="0"
     inkscape:deskcolor="#1a1a1a"
     inkscape:document-units="px"
     showgrid="false"
     inkscape:zoom="0.7071068"
     inkscape:cx="-207.88939"
     inkscape:cy="-99.702053"
     inkscape:window-width="1858"
     inkscape:window-height="1057"
     inkscape:window-x="54"
     inkscape:window-y="-8"
     inkscape:window-maximized="1"
     inkscape:current-layer="layer1">
    <inkscape:grid
       type="xygrid"
       id="grid28025"
       dotted="true"
       originx="0"
       originy="0"
       spacingy="1"
       spacingx="1"
       units="px"
       visible="false" />
  </sodipodi:namedview>
  <defs
     id="defs27897">
    <inkscape:path-effect
       effect="spiro"
       id="path-effect61738"
       is_visible="true"
       lpeversion="1" />
    <inkscape:path-effect
       effect="spiro"
       id="path-effect61728"
       is_visible="true"
       lpeversion="1" />
    <inkscape:path-effect
       effect="spiro"
       id="path-effect61717"
       is_visible="true"
       lpeversion="1" />
    <inkscape:path-effect
       effect="spiro"
       id="path-effect43023"
       is_visible="true"
       lpeversion="1" />
    <inkscape:path-effect
       effect="spiro"
       id="path-effect43017"
       is_visible="true"
       lpeversion="1" />
    <inkscape:path-effect
       effect="spiro"
       id="path-effect38986"
       is_visible="true"
       lpeversion="1" />
  </defs>
  <g
     inkscape:label="Camada 1"
     inkscape:groupmode="layer"
     id="layer1">
    <g
       id="g105"
       inkscape:export-filename="..\bodies\head.png"
       inkscape:export-xdpi="96"
       inkscape:export-ydpi="96">
      <path
         style="font-variation-settings:normal;fill:none;fill-opacity:1;stroke:#afa6bc;stroke-width:6.87131;stroke-linecap:round;stroke-linejoin:miter;stroke-miterlimit:4;stroke-dasharray:none;stroke-dashoffset:0;stroke-opacity:1;stop-color:#000000"
         d="M 256.27025,75.791097 V 38.154082"
         id="path61736"
         inkscape:path-effect="#path-effect61738"
         inkscape:original-d="m 256.27025,75.791097 c 0.002,-12.499468 0.002,-25.08962 0,-37.637015" />
      <circle
         style="fill:#ffffff;fill-opacity:1;stroke:#afa6bc;stroke-width:6.60313;stroke-linecap:round;stroke-dasharray:none;stroke-opacity:1;paint-order:fill markers stroke"
         id="path61792"
         cx="256.3027"
         cy="27.316938"
         r="17.827501" />
      <g
         id="g43027"
         transform="matrix(1.7178282,0,0,1.7178282,-206.37514,-147.93969)"
         style="stroke:#afa6bc;stroke-opacity:1">
        <path
           style="font-variation-settings:normal;opacity:1;vector-effect:none;fill:none;fill-opacity:1;stroke:#afa6bc;stroke-width:5.85265;stroke-linecap:round;stroke-linejoin:miter;stroke-miterlimit:4;stroke-dasharray:none;stroke-dashoffset:0;stroke-opacity:1;-inkscape-stroke:none;stop-color:#000000;stop-opacity:1"
           d="m 224.12421,198.53168 c -16.34525,-1.26902 -32.83859,-0.6201 -49.03361,1.92919 -5.25945,0.8279 -10.51433,1.85798 -15.83763,1.95628 -5.3233,0.0983 -10.80158,-0.79799 -15.35095,-3.56394 -4.62862,-2.81413 -8.06377,-7.54442 -9.25123,-12.82963 -1.18746,-5.28521 -0.0952,-11.05354 2.98981,-15.50623 3.08497,-4.45269 8.12699,-7.50958 13.50842,-8.12904 5.38143,-0.61946 11.0088,1.22658 14.93869,4.95479 1.77763,1.6864 3.21784,3.74337 4.09551,6.03107 0.87768,2.2877 1.18209,4.80701 0.77023,7.22244 -0.41187,2.41542 -1.55281,4.71707 -3.30016,6.43482 -1.74735,1.71775 -4.10375,2.82789 -6.54933,2.97966 -1.82883,0.1135 -3.68761,-0.30628 -5.29016,-1.1947 -1.60256,-0.88842 -2.94342,-2.24245 -3.81613,-3.85361 -0.87272,-1.61117 -1.2743,-3.47396 -1.14294,-5.30159 0.13137,-1.82763 0.79523,-3.61384 1.8894,-5.08363"
           id="path43015"
           inkscape:original-d="m 224.12421,198.53168 c -16.28949,0.64453 -32.68761,1.28759 -49.03361,1.92919 -16.34599,0.6416 -20.79093,-1.0703 -31.18858,-1.60766 -10.39766,-0.53735 14.79192,-21.00527 22.18569,-31.51011 7.39378,-10.50484 -3.32103,15.11345 -4.98375,22.66799 -1.66271,7.55453 -5.57175,-10.28755 -8.35983,-15.43353"
           inkscape:path-effect="#path-effect43017" />
        <path
           style="font-variation-settings:normal;opacity:1;vector-effect:none;fill:none;fill-opacity:1;stroke:#afa6bc;stroke-width:5.85265;stroke-linecap:round;stroke-linejoin:miter;stroke-miterlimit:4;stroke-dasharray:none;stroke-dashoffset:0;stroke-opacity:1;-inkscape-stroke:none;stop-color:#000000;stop-opacity:1"
           d="m 313.49329,198.53168 c 16.34525,-1.26902 32.83859,-0.6201 49.03361,1.92919 5.25945,0.8279 10.51433,1.85798 15.83763,1.95628 5.3233,0.0983 10.80158,-0.79799 15.35095,-3.56394 4.62862,-2.81413 8.06377,-7.54442 9.25123,-12.82963 1.18746,-5.28521 0.0952,-11.05354 -2.98981,-15.50623 -3.08497,-4.45269 -8.12699,-7.50958 -13.50842,-8.12904 -5.38143,-0.61946 -11.0088,1.22658 -14.93869,4.95479 -1.77763,1.6864 -3.21784,3.74337 -4.09551,6.03107 -0.87768,2.2877 -1.18209,4.80701 -0.77023,7.22244 0.41187,2.41542 1.55281,4.71707 3.30016,6.43482 1.74735,1.71775 4.10375,2.82789 6.54933,2.97966 1.82883,0.1135 3.68761,-0.30628 5.29016,-1.1947 1.60256,-0.88842 2.94342,-2.24245 3.81613,-3.85361 0.87272,-1.61117 1.2743,-3.47396 1.14294,-5.30159 -0.13137,-1.82763 -0.79523,-3.61384 -1.8894,-5.08363"
           id="path43019"
           inkscape:original-d="m 313.49329,198.53168 c 16.28949,0.64453 32.68761,1.28759 49.03361,1.92919 16.34599,0.6416 20.79093,-1.0703 31.18858,-1.60766 10.39766,-0.53735 -14.79192,-21.00527 -22.18569,-31.51011 -7.39378,-10.50484 3.32103,15.11345 4.98375,22.66799 1.66271,7.55453 5.57175,-10.28755 8.35983,-15.43353"
           inkscape:path-effect="#path-effect43023" />
      </g>
      <path
         id="path105"
         style="fill:#ffffff;fill-opacity:1;stroke:#afa6bc;stroke-width:3.48192;stroke-linecap:round;stroke-opacity:1;paint-order:fill markers stroke"
         d="m 395.35122,178.52135 c 0,75.89842 22.2879,120.3428 -142.231,120.3428 -164.518903,0 -136.89239,-45.51209 -136.89239,-121.41052 0,-75.89842 48.71524,-98.988456 137.9601,-99.522316 89.24489,-0.53385 141.16329,24.691606 141.16329,100.590036 z"
         sodipodi:nodetypes="szszs" />
      <path
         style="font-variation-settings:normal;fill:none;fill-opacity:1;stroke:#1a4678;stroke-width:6.87131;stroke-linecap:round;stroke-linejoin:miter;stroke-miterlimit:4;stroke-dasharray:none;stroke-dashoffset:0;stroke-opacity:1;stop-color:#000000"
         d="m 255.2748,89.154769 c 4.20109,-0.02163 8.4767,1.312946 11.62775,4.091536 1.57552,1.389296 2.8543,3.123541 3.65907,5.063839 0.80477,1.940296 1.12891,4.085936 0.87226,6.170776 -0.46551,3.78153 -2.80275,7.13842 -5.73256,9.57416 -2.92981,2.43575 -6.43261,4.06634 -9.92677,5.5854 -3.55844,1.54701 -7.21225,3.04147 -10.21067,5.50424 -1.49921,1.23138 -2.81924,2.70249 -3.74885,4.40535 -0.92961,1.70287 -1.4576,3.64519 -1.36662,5.58314 0.0844,1.79839 0.69863,3.55186 1.64131,5.0857 0.94267,1.53385 2.20616,2.85507 3.61386,3.97744 2.81539,2.24475 6.16626,3.68921 9.40463,5.26347 3.31404,1.61104 6.5873,3.40862 9.29699,5.90579 2.70969,2.49718 4.83694,5.7732 5.3628,9.42036 0.58022,4.02418 -0.90439,8.24696 -3.72105,11.17904 -2.81665,2.93209 -6.87364,4.57209 -10.93874,4.64686 -4.08856,0.0752 -8.23252,-1.43706 -11.13601,-4.3166 -1.45174,-1.43977 -2.58677,-3.20244 -3.26457,-5.13145 -0.6778,-1.92901 -0.89449,-4.02249 -0.59239,-6.04468 0.55102,-3.68843 2.79187,-6.96447 5.60328,-9.41479 2.81141,-2.45033 6.17682,-4.16764 9.55628,-5.74477 3.48188,-1.62492 7.07121,-3.15981 10.02767,-5.61403 1.47823,-1.22711 2.78451,-2.68203 3.71484,-4.36294 0.93033,-1.6809 1.47437,-3.59543 1.41703,-5.51576 -0.0553,-1.85136 -0.66774,-3.66502 -1.63034,-5.24742 -0.96259,-1.5824 -2.26676,-2.94064 -3.72587,-4.08152 -2.91821,-2.28174 -6.40626,-3.68702 -9.80333,-5.16426 -3.68609,-1.60292 -7.37456,-3.35716 -10.40231,-6.00089 -1.51387,-1.32187 -2.84983,-2.86186 -3.84171,-4.60981 -0.99188,-1.74794 -1.63348,-3.7085 -1.74848,-5.71497 -0.1152,-2.01002 0.30224,-4.04152 1.15032,-5.867505 0.84808,-1.825985 2.12135,-3.446241 3.65929,-4.745547 3.07589,-2.598612 7.1563,-3.859429 11.18289,-3.880159 z"
         id="path38984"
         inkscape:original-d="m 255.2748,89.154769 c 5.33044,-4.831443 10.7731,10.217814 16.15908,15.326151 5.38597,5.10834 -10.43918,10.10676 -15.65933,15.15956 -5.22015,5.0528 -10.21704,10.32887 -15.32614,15.49273 -5.10909,5.16386 9.77357,9.55146 14.6598,14.32661 4.8862,4.77516 9.77356,10.21781 14.65979,15.32615 4.8862,5.10834 -9.77281,10.55099 -14.65979,15.8259 -4.88699,5.27494 -9.99493,-10.32809 -14.99297,-15.49273 -4.99804,-5.16461 10.10674,-10.10598 15.15956,-15.15956 5.0528,-5.05356 10.10674,-10.3281 15.15954,-15.49273 5.05281,-5.16461 -10.10598,-9.66175 -15.15954,-14.4932 -5.05358,-4.83144 -10.66129,-10.8834 -15.9925,-16.32567 -5.33121,-5.442266 10.66205,-9.66175 15.9925,-14.493211 z"
         inkscape:path-effect="#path-effect38986" />
      <path
         id="rect56299"
         style="fill:#17208e;fill-opacity:1;stroke-width:3.43566;stroke-linecap:round;paint-order:fill markers stroke"
         d="m 202.0956,173.32497 c 0.54104,1.1087 -8.39435,7.34193 -8.45341,7.9739 -0.0591,0.632 10.48822,5.93459 9.92225,7.47858 -0.56602,1.54395 -16.09422,-4.15126 -23.89926,-6.74024 -7.80506,-2.58899 -22.93103,-8.79371 -22.93103,-8.79371 0,0 15.21349,2.63526 23.41622,2.02335 8.20278,-0.61191 21.40419,-3.05062 21.94523,-1.94188 z"
         sodipodi:nodetypes="zzzzczz" />
      <path
         id="path57028"
         style="fill:#17208e;fill-opacity:1;stroke-width:3.43566;stroke-linecap:round;paint-order:fill markers stroke"
         d="m 308.958,173.32496 c -0.54105,1.10871 8.39434,7.34194 8.45341,7.97391 0.0591,0.63201 -10.48823,5.93459 -9.92225,7.47858 0.56601,1.54395 16.09422,-4.15125 23.89925,-6.74024 7.80506,-2.58899 22.93104,-8.79371 22.93104,-8.79371 0,0 -15.2135,2.63526 -23.41623,2.02335 -8.20278,-0.61191 -21.40419,-3.05062 -21.94522,-1.94189 z"
         sodipodi:nodetypes="zzzzczz" />
      <g
         id="g61720"
         transform="matrix(1.7178282,0,0,1.7178282,-208.82886,-147.46782)"
         style="stroke:#023ae9;stroke-opacity:1">
        <path
           style="font-variation-settings:normal;opacity:1;fill:none;fill-opacity:1;stroke:#023ae9;stroke-width:2;stroke-linecap:round;stroke-linejoin:miter;stroke-miterlimit:4;stroke-dasharray:none;stroke-dashoffset:0;stroke-opacity:1;stop-color:#000000;stop-opacity:1"
           d="m 217.15879,225.23505 c -1.5213,1.92348 -2.18164,4.50313 -1.77166,6.92098 0.40999,2.41786 1.88383,4.63562 3.95417,5.95008 2.07034,1.31445 4.70441,1.70478 7.06697,1.04721 2.36257,-0.65757 4.41622,-2.35263 5.50976,-4.54768 0.83791,-1.68193 1.11307,-3.67259 0.58409,-5.47569 -0.26449,-0.90156 -0.72577,-1.74756 -1.35841,-2.44219 -0.63264,-0.69464 -1.43734,-1.23533 -2.32751,-1.53592 -0.84596,-0.28566 -1.76677,-0.35215 -2.64232,-0.17706 -0.87556,0.17509 -1.70318,0.59293 -2.35438,1.20383 -0.65119,0.6109 -1.12243,1.41414 -1.32435,2.2839 -0.20192,0.86976 -0.13161,1.80276 0.21131,2.62718 0.24345,0.58529 0.62431,1.11673 1.11929,1.51275 0.49498,0.39603 1.10518,0.65295 1.73724,0.70134 0.63205,0.0484 1.28315,-0.11685 1.79961,-0.48442 0.51646,-0.36757 0.88979,-0.93919 0.99125,-1.56493 0.0938,-0.57861 -0.0482,-1.19197 -0.3868,-1.67046 -0.33859,-0.47849 -0.86975,-0.81648 -1.44662,-0.92051"
           id="path61715"
           inkscape:path-effect="#path-effect61717"
           inkscape:original-d="m 217.15879,225.23505 c 4.88362,3.12965 9.83921,6.24567 14.75924,9.37059 4.92004,3.12492 -2.06818,-6.30391 -3.10183,-9.4538 -1.03367,-3.14988 -4.07346,3.95718 -6.10974,5.93785 -2.03629,1.98067 3.76464,0.10844 5.64739,0.16474 1.88275,0.0563 -1.22257,-1.7287 -1.83342,-2.59097" />
      </g>
      <g
         id="g61724"
         transform="matrix(-1.7178282,0,0,1.7178282,720.50896,-147.46782)"
         style="stroke:#023ae9;stroke-opacity:1">
        <path
           style="font-variation-settings:normal;opacity:1;fill:none;fill-opacity:1;stroke:#023ae9;stroke-width:2;stroke-linecap:round;stroke-linejoin:miter;stroke-miterlimit:4;stroke-dasharray:none;stroke-dashoffset:0;stroke-opacity:1;stop-color:#000000;stop-opacity:1"
           d="m 217.15879,225.23505 c -1.5213,1.92348 -2.18164,4.50313 -1.77166,6.92098 0.40999,2.41786 1.88383,4.63562 3.95417,5.95008 2.07034,1.31445 4.70441,1.70478 7.06697,1.04721 2.36257,-0.65757 4.41622,-2.35263 5.50976,-4.54768 0.83791,-1.68193 1.11307,-3.67259 0.58409,-5.47569 -0.26449,-0.90156 -0.72577,-1.74756 -1.35841,-2.44219 -0.63264,-0.69464 -1.43734,-1.23533 -2.32751,-1.53592 -0.84596,-0.28566 -1.76677,-0.35215 -2.64232,-0.17706 -0.87556,0.17509 -1.70318,0.59293 -2.35438,1.20383 -0.65119,0.6109 -1.12243,1.41414 -1.32435,2.2839 -0.20192,0.86976 -0.13161,1.80276 0.21131,2.62718 0.24345,0.58529 0.62431,1.11673 1.11929,1.51275 0.49498,0.39603 1.10518,0.65295 1.73724,0.70134 0.63205,0.0484 1.28315,-0.11685 1.79961,-0.48442 0.51646,-0.36757 0.88979,-0.93919 0.99125,-1.56493 0.0938,-0.57861 -0.0482,-1.19197 -0.3868,-1.67046 -0.33859,-0.47849 -0.86975,-0.81648 -1.44662,-0.92051"
           id="path61722"
           inkscape:path-effect="#path-effect61728"
           inkscape:original-d="m 217.15879,225.23505 c 4.88362,3.12965 9.83921,6.24567 14.75924,9.37059 4.92004,3.12492 -2.06818,-6.30391 -3.10183,-9.4538 -1.03367,-3.14988 -4.07346,3.95718 -6.10974,5.93785 -2.03629,1.98067 3.76464,0.10844 5.64739,0.16474 1.88275,0.0563 -1.22257,-1.7287 -1.83342,-2.59097" />
      </g>
      <g
         id="g64051"
         style="fill:#0a2b19;fill-opacity:1">
        <path
           id="path64048"
           style="fill:#0a2b19;fill-opacity:1;stroke-width:4;stroke-linecap:round;paint-order:fill markers stroke"
           inkscape:transform-center-y="-4.6798347"
           d="m 216.64415,214.68669 c 0.86847,1.50423 -3.15736,9.19345 -4.02582,10.69769 -0.86847,1.50423 -14.9732,2.96664 -16.71014,2.96664 -0.87594,0 -17.14523,-0.39802 -19.60729,-1.5539 -2.93372,-1.37732 -14.36231,-11.65467 -14.79281,-12.40031 -0.44106,-0.76395 9.55532,2.82463 19.01492,4.26845 4.80479,0.73336 18.14394,1.41034 18.14394,1.41034 z"
           sodipodi:nodetypes="cssssscc" />
      </g>
      <g
         id="g64055"
         transform="matrix(-1,0,0,1,510.98032,-0.20299845)"
         style="fill:#0a2b19;fill-opacity:1">
        <path
           id="path64053"
           style="fill:#0a2b19;fill-opacity:1;stroke-width:4;stroke-linecap:round;paint-order:fill markers stroke"
           inkscape:transform-center-y="-4.6798347"
           d="m 216.64415,214.68669 c 0.86847,1.50423 -3.15736,9.19345 -4.02582,10.69769 -0.86847,1.50423 -14.9732,2.96664 -16.71014,2.96664 -0.87594,0 -17.14523,-0.39802 -19.60729,-1.5539 -2.93372,-1.37732 -14.36231,-11.65467 -14.79281,-12.40031 -0.44106,-0.76395 9.55532,2.82463 19.01492,4.26845 4.80479,0.73336 18.14394,1.41034 18.14394,1.41034 z"
           sodipodi:nodetypes="cssssscc" />
      </g>
    </g>
  </g>
</svg>
